# 3ds Max Wavefront OBJ Exporter v0.97b - (c)2007 guruware
# File Created: 03.06.2016 21:22:22

mtllib flower2.mtl

#
# object Cylinder001
#

v  68.7907 244.9020 0.7740
v  64.0717 240.7688 0.7740
v  64.0717 240.7688 1.5223
v  68.7907 244.9020 1.5223
v  66.5444 235.0034 0.7740
v  66.5444 235.0034 1.5223
v  72.7916 235.5736 0.7740
v  72.7916 235.5736 1.5223
v  74.1799 241.6912 0.7740
v  74.1799 241.6912 1.5223
v  64.0717 240.7688 2.2706
v  68.7907 244.9020 2.2706
v  66.5444 235.0034 2.2706
v  72.7916 235.5736 2.2706
v  74.1799 241.6912 2.2706
v  64.0717 240.7688 3.0189
v  68.7907 244.9020 3.0189
v  66.5444 235.0034 3.0189
v  72.7916 235.5736 3.0189
v  74.1799 241.6912 3.0189
v  64.5921 240.6507 3.0189
v  68.8392 244.3706 3.0189
v  66.8175 235.4619 3.0189
v  72.4400 235.9750 3.0189
v  73.6895 241.4809 3.0189
v  64.8296 240.5968 1.8266
v  68.8613 244.1281 1.8266
v  66.9422 235.6711 1.8266
v  72.2796 236.1582 1.8266
v  73.4657 241.3849 1.8266
v  66.4170 240.2365 1.8407
v  69.0093 242.5070 1.8407
v  67.7753 237.0695 1.8407
v  71.2071 237.3827 1.8407
v  71.9697 240.7433 1.8407
v  66.6959 240.1732 2.5604
v  69.0353 242.2222 2.5604
v  67.9217 237.3152 2.5604
v  71.0186 237.5978 2.5604
v  71.7069 240.6305 2.5604
v  67.3224 240.0311 2.5874
v  69.0937 241.5824 2.5874
v  68.2505 237.8671 2.5874
v  70.5953 238.0811 2.5874
v  71.1164 240.3773 2.5874
v  67.5327 239.9834 1.3181
v  69.1132 241.3678 1.3181
v  68.3609 238.0523 1.3181
v  70.4533 238.2433 1.3181
v  70.9183 240.2923 1.3181
v  67.8222 239.9176 1.3013
v  69.1402 241.0721 1.3013
v  68.5128 238.3074 1.3013
v  70.2577 238.4666 1.3013
v  70.6455 240.1753 1.3013
v  68.5489 239.7527 1.3013
v  69.2079 240.3299 1.3013
v  68.8942 238.9476 1.3013
v  69.7667 239.0272 1.3013
v  69.9606 239.8815 1.3013
v  69.2757 239.5878 1.3013
v  68.7907 244.9020 0.0264
v  64.0717 240.7688 0.0264
v  66.5444 235.0034 0.0264
v  72.7916 235.5736 0.0264
v  74.1799 241.6912 0.0264
v  68.7907 244.9020 -0.7212
v  68.7907 244.9020 -1.4695
v  64.0717 240.7688 -1.4695
v  64.0717 240.7688 -0.7212
v  66.5444 235.0034 -1.4695
v  66.5444 235.0034 -0.7212
v  72.7916 235.5736 -1.4695
v  72.7916 235.5736 -0.7212
v  74.1799 241.6912 -1.4695
v  74.1799 241.6912 -0.7212
v  68.7907 244.9020 -2.2178
v  64.0717 240.7688 -2.2178
v  66.5444 235.0034 -2.2178
v  72.7916 235.5736 -2.2178
v  74.1799 241.6912 -2.2178
v  68.7907 244.9020 -2.9661
v  64.0717 240.7688 -2.9661
v  66.5444 235.0034 -2.9661
v  72.7916 235.5736 -2.9661
v  74.1799 241.6912 -2.9661
v  68.8392 244.3706 -2.9661
v  64.5921 240.6507 -2.9661
v  66.8175 235.4619 -2.9661
v  72.4400 235.9750 -2.9661
v  73.6895 241.4809 -2.9661
v  68.8613 244.1281 -1.7738
v  64.8296 240.5968 -1.7738
v  66.9422 235.6711 -1.7738
v  72.2796 236.1582 -1.7738
v  73.4657 241.3849 -1.7738
v  69.0093 242.5070 -1.7879
v  66.4170 240.2365 -1.7879
v  67.7753 237.0695 -1.7879
v  71.2071 237.3827 -1.7879
v  71.9697 240.7433 -1.7879
v  69.0353 242.2222 -2.5076
v  66.6959 240.1732 -2.5076
v  67.9217 237.3152 -2.5076
v  71.0186 237.5978 -2.5076
v  71.7069 240.6305 -2.5076
v  69.0937 241.5824 -2.5346
v  67.3224 240.0311 -2.5346
v  68.2505 237.8671 -2.5346
v  70.5953 238.0811 -2.5346
v  71.1164 240.3773 -2.5346
v  69.1132 241.3678 -1.2654
v  67.5327 239.9834 -1.2654
v  68.3609 238.0523 -1.2654
v  70.4533 238.2433 -1.2654
v  70.9183 240.2923 -1.2654
v  69.1402 241.0721 -1.2485
v  67.8222 239.9176 -1.2485
v  68.5128 238.3074 -1.2485
v  70.2577 238.4666 -1.2485
v  70.6455 240.1753 -1.2485
v  69.2079 240.3299 -1.2485
v  68.5489 239.7527 -1.2485
v  68.8942 238.9476 -1.2485
v  69.7667 239.0272 -1.2485
v  69.9606 239.8815 -1.2485
v  69.2757 239.5878 -1.2485
# 127 vertices

vn -0.0909 0.9959 -0.0000
vn -0.9752 0.2213 -0.0000
vn -0.9752 0.2213 0.0000
vn -0.0909 0.9959 0.0000
vn -0.5118 -0.8591 -0.0000
vn -0.5118 -0.8591 0.0000
vn 0.6589 -0.7523 -0.0000
vn 0.9190 0.3942 -0.0000
vn 0.0000 -0.0000 1.0000
vn 0.2879 -0.0653 0.9554
vn 0.0268 -0.2940 0.9554
vn 0.1511 0.2536 0.9554
vn -0.1945 0.2221 0.9554
vn -0.2713 -0.1164 0.9554
vn 0.5675 -0.1288 0.8133
vn 0.0529 -0.5795 0.8133
vn 0.2978 0.4999 0.8133
vn -0.3834 0.4377 0.8133
vn -0.5348 -0.2294 0.8133
vn -0.1895 0.0430 0.9809
vn -0.0177 0.1936 0.9809
vn -0.0995 -0.1670 0.9809
vn 0.1281 -0.1462 0.9809
vn 0.1786 0.0766 0.9809
vn -0.4082 0.0926 0.9082
vn -0.0380 0.4168 0.9082
vn -0.2142 -0.3596 0.9082
vn 0.2758 -0.3149 0.9082
vn 0.3847 0.1650 0.9082
vn 0.3059 -0.0694 0.9495
vn 0.0285 -0.3124 0.9495
vn 0.1606 0.2695 0.9495
vn -0.2067 0.2360 0.9495
vn -0.2883 -0.1237 0.9495
vn 0.6085 -0.1381 0.7815
vn 0.0567 -0.6214 0.7815
vn 0.3193 0.5360 0.7815
vn -0.4111 0.4694 0.7815
vn -0.5734 -0.2459 0.7815
vn 0.0114 -0.0026 0.9999
vn 0.0011 -0.0116 0.9999
vn 0.0060 0.0100 0.9999
vn -0.0077 0.0088 0.9999
vn -0.0107 -0.0046 0.9999
vn 0.6589 -0.7523 0.0000
vn 0.9190 0.3942 0.0000
vn -0.0000 0.0000 -1.0000
vn 0.0268 -0.2940 -0.9554
vn 0.2879 -0.0653 -0.9554
vn 0.1511 0.2536 -0.9554
vn -0.1945 0.2221 -0.9554
vn -0.2713 -0.1164 -0.9554
vn 0.0529 -0.5795 -0.8133
vn 0.5675 -0.1288 -0.8133
vn 0.2978 0.4999 -0.8133
vn -0.3834 0.4377 -0.8133
vn -0.5348 -0.2294 -0.8133
vn -0.0177 0.1936 -0.9809
vn -0.1895 0.0430 -0.9809
vn -0.0995 -0.1670 -0.9809
vn 0.1281 -0.1462 -0.9809
vn 0.1786 0.0766 -0.9809
vn -0.0380 0.4168 -0.9082
vn -0.4082 0.0926 -0.9082
vn -0.2142 -0.3596 -0.9082
vn 0.2758 -0.3149 -0.9082
vn 0.3847 0.1650 -0.9082
vn 0.0285 -0.3124 -0.9495
vn 0.3059 -0.0694 -0.9495
vn 0.1606 0.2695 -0.9495
vn -0.2067 0.2360 -0.9495
vn -0.2883 -0.1237 -0.9495
vn 0.0567 -0.6214 -0.7815
vn 0.6085 -0.1381 -0.7815
vn 0.3193 0.5360 -0.7815
vn -0.4111 0.4694 -0.7815
vn -0.5734 -0.2459 -0.7815
vn 0.0011 -0.0116 -0.9999
vn 0.0114 -0.0026 -0.9999
vn 0.0060 0.0100 -0.9999
vn -0.0077 0.0088 -0.9999
vn -0.0107 -0.0046 -0.9999
# 82 vertex normals

vt 0.7500 0.5714 1.0000
vt 0.9500 0.5714 1.0000
vt 0.9500 0.7143 1.0000
vt 0.7500 0.7143 1.0000
vt 1.1500 0.5714 1.0000
vt 1.1500 0.7143 1.0000
vt 0.1500 0.5714 1.0000
vt 0.3500 0.5714 1.0000
vt 0.3500 0.7143 1.0000
vt 0.1500 0.7143 1.0000
vt 0.5500 0.5714 1.0000
vt 0.5500 0.7143 1.0000
vt 0.9500 0.8571 1.0000
vt 0.7500 0.8571 1.0000
vt 1.1500 0.8571 1.0000
vt 0.3500 0.8571 1.0000
vt 0.1500 0.8571 1.0000
vt 0.5500 0.8571 1.0000
vt 0.9500 1.0000 1.0000
vt 0.7500 1.0000 1.0000
vt 1.1500 1.0000 1.0000
vt 0.3500 1.0000 1.0000
vt 0.1500 1.0000 1.0000
vt 0.5500 1.0000 1.0000
vt 0.5000 1.0000 0.2500
vt 0.0245 0.6545 0.2500
vt 0.0720 0.6391 0.2500
vt 0.5000 0.9500 0.2500
vt 0.2061 0.0955 0.2500
vt 0.2355 0.1359 0.2500
vt 0.7939 0.0955 0.2500
vt 0.7645 0.1359 0.2500
vt 0.9755 0.6545 0.2500
vt 0.9280 0.6391 0.2500
vt 0.1196 0.6236 0.2500
vt 0.5000 0.9000 0.2500
vt 0.2649 0.1764 0.2500
vt 0.7351 0.1764 0.2500
vt 0.8804 0.6236 0.2500
vt 0.1671 0.6082 0.2500
vt 0.5000 0.8500 0.2500
vt 0.2943 0.2168 0.2500
vt 0.7057 0.2168 0.2500
vt 0.8329 0.6082 0.2500
vt 0.2147 0.5927 0.2500
vt 0.5000 0.8000 0.2500
vt 0.3237 0.2573 0.2500
vt 0.6763 0.2573 0.2500
vt 0.7853 0.5927 0.2500
vt 0.2622 0.5773 0.2500
vt 0.5000 0.7000 0.2500
vt 0.3531 0.2977 0.2500
vt 0.6469 0.2977 0.2500
vt 0.7378 0.5773 0.2500
vt 0.3573 0.5464 0.2500
vt 0.5000 0.6500 0.2500
vt 0.4118 0.3786 0.2500
vt 0.5882 0.3786 0.2500
vt 0.6427 0.5464 0.2500
vt 0.4049 0.5309 0.2500
vt 0.5000 0.6000 0.2500
vt 0.4412 0.4191 0.2500
vt 0.5588 0.4191 0.2500
vt 0.5951 0.5309 0.2500
vt 0.4524 0.5155 0.2500
vt 0.5000 0.5500 0.2500
vt 0.4706 0.4595 0.2500
vt 0.5294 0.4595 0.2500
vt 0.5476 0.5155 0.2500
vt 0.5000 0.5000 0.2500
vt 0.7500 0.4287 1.0000
vt 0.9500 0.4287 1.0000
vt 1.1500 0.4287 1.0000
vt 0.1500 0.4287 1.0000
vt 0.3500 0.4287 1.0000
vt 0.5500 0.4287 1.0000
# 76 texture coords

g Cylinder001
usemtl ____
s 8
f 1/1/1 2/2/2 3/3/3 4/4/4 
f 2/2/2 5/5/5 6/6/6 3/3/3 
f 5/7/5 7/8/7 8/9/7 6/10/6 
f 7/8/7 9/11/8 10/12/8 8/9/7 
f 9/11/8 1/1/1 4/4/4 10/12/8 
f 4/4/4 3/3/3 11/13/3 12/14/4 
f 3/3/3 6/6/6 13/15/6 11/13/3 
f 6/10/6 8/9/7 14/16/7 13/17/6 
f 8/9/7 10/12/8 15/18/8 14/16/7 
f 10/12/8 4/4/4 12/14/4 15/18/8 
f 12/14/4 11/13/3 16/19/3 17/20/4 
f 11/13/3 13/15/6 18/21/6 16/19/3 
f 13/17/6 14/16/7 19/22/7 18/23/6 
f 14/16/7 15/18/8 20/24/8 19/22/7 
f 15/18/8 12/14/4 17/20/4 20/24/8 
s 1
f 17/25/9 16/26/9 21/27/10 22/28/11 
f 16/26/9 18/29/9 23/30/12 21/27/10 
f 18/29/9 19/31/9 24/32/13 23/30/12 
f 19/31/9 20/33/9 25/34/14 24/32/13 
f 20/33/9 17/25/9 22/28/11 25/34/14 
f 22/28/11 21/27/10 26/35/15 27/36/16 
f 21/27/10 23/30/12 28/37/17 26/35/15 
f 23/30/12 24/32/13 29/38/18 28/37/17 
f 24/32/13 25/34/14 30/39/19 29/38/18 
f 25/34/14 22/28/11 27/36/16 30/39/19 
f 27/36/16 26/35/15 31/40/20 32/41/21 
f 26/35/15 28/37/17 33/42/22 31/40/20 
f 28/37/17 29/38/18 34/43/23 33/42/22 
f 29/38/18 30/39/19 35/44/24 34/43/23 
f 30/39/19 27/36/16 32/41/21 35/44/24 
f 32/41/21 31/40/20 36/45/25 37/46/26 
f 31/40/20 33/42/22 38/47/27 36/45/25 
f 33/42/22 34/43/23 39/48/28 38/47/27 
f 34/43/23 35/44/24 40/49/29 39/48/28 
f 35/44/24 32/41/21 37/46/26 40/49/29 
f 37/46/26 36/45/25 41/50/30 42/51/31 
f 36/45/25 38/47/27 43/52/32 41/50/30 
f 38/47/27 39/48/28 44/53/33 43/52/32 
f 39/48/28 40/49/29 45/54/34 44/53/33 
f 40/49/29 37/46/26 42/51/31 45/54/34 
f 42/51/31 41/50/30 46/55/35 47/56/36 
f 41/50/30 43/52/32 48/57/37 46/55/35 
f 43/52/32 44/53/33 49/58/38 48/57/37 
f 44/53/33 45/54/34 50/59/39 49/58/38 
f 45/54/34 42/51/31 47/56/36 50/59/39 
f 47/56/36 46/55/35 51/60/40 52/61/41 
f 46/55/35 48/57/37 53/62/42 51/60/40 
f 48/57/37 49/58/38 54/63/43 53/62/42 
f 49/58/38 50/59/39 55/64/44 54/63/43 
f 50/59/39 47/56/36 52/61/41 55/64/44 
f 52/61/41 51/60/40 56/65/9 57/66/9 
f 51/60/40 53/62/42 58/67/9 56/65/9 
f 53/62/42 54/63/43 59/68/9 58/67/9 
f 54/63/43 55/64/44 60/69/9 59/68/9 
f 55/64/44 52/61/41 57/66/9 60/69/9 
f 57/66/9 56/65/9 61/70/9 
f 56/65/9 58/67/9 61/70/9 
f 58/67/9 59/68/9 61/70/9 
f 59/68/9 60/69/9 61/70/9 
f 60/69/9 57/66/9 61/70/9 
s 8
f 2/2/2 1/1/1 62/71/4 63/72/3 
f 5/5/5 2/2/2 63/72/3 64/73/6 
f 7/8/7 5/7/5 64/74/6 65/75/7 
f 9/11/8 7/8/7 65/75/7 66/76/8 
f 1/1/1 9/11/8 66/76/8 62/71/4 
f 67/1/4 68/4/4 69/3/3 70/2/3 
f 70/2/3 69/3/3 71/6/6 72/5/6 
f 72/7/6 71/10/6 73/9/7 74/8/45 
f 74/8/45 73/9/7 75/12/8 76/11/46 
f 76/11/46 75/12/8 68/4/4 67/1/4 
f 68/4/4 77/14/4 78/13/3 69/3/3 
f 69/3/3 78/13/3 79/15/6 71/6/6 
f 71/10/6 79/17/6 80/16/7 73/9/7 
f 73/9/7 80/16/7 81/18/8 75/12/8 
f 75/12/8 81/18/8 77/14/4 68/4/4 
f 77/14/4 82/20/4 83/19/3 78/13/3 
f 78/13/3 83/19/3 84/21/6 79/15/6 
f 79/17/6 84/23/6 85/22/7 80/16/7 
f 80/16/7 85/22/7 86/24/8 81/18/8 
f 81/18/8 86/24/8 82/20/4 77/14/4 
s 1
f 82/25/47 87/28/48 88/27/49 83/26/47 
f 83/26/47 88/27/49 89/30/50 84/29/47 
f 84/29/47 89/30/50 90/32/51 85/31/47 
f 85/31/47 90/32/51 91/34/52 86/33/47 
f 86/33/47 91/34/52 87/28/48 82/25/47 
f 87/28/48 92/36/53 93/35/54 88/27/49 
f 88/27/49 93/35/54 94/37/55 89/30/50 
f 89/30/50 94/37/55 95/38/56 90/32/51 
f 90/32/51 95/38/56 96/39/57 91/34/52 
f 91/34/52 96/39/57 92/36/53 87/28/48 
f 92/36/53 97/41/58 98/40/59 93/35/54 
f 93/35/54 98/40/59 99/42/60 94/37/55 
f 94/37/55 99/42/60 100/43/61 95/38/56 
f 95/38/56 100/43/61 101/44/62 96/39/57 
f 96/39/57 101/44/62 97/41/58 92/36/53 
f 97/41/58 102/46/63 103/45/64 98/40/59 
f 98/40/59 103/45/64 104/47/65 99/42/60 
f 99/42/60 104/47/65 105/48/66 100/43/61 
f 100/43/61 105/48/66 106/49/67 101/44/62 
f 101/44/62 106/49/67 102/46/63 97/41/58 
f 102/46/63 107/51/68 108/50/69 103/45/64 
f 103/45/64 108/50/69 109/52/70 104/47/65 
f 104/47/65 109/52/70 110/53/71 105/48/66 
f 105/48/66 110/53/71 111/54/72 106/49/67 
f 106/49/67 111/54/72 107/51/68 102/46/63 
f 107/51/68 112/56/73 113/55/74 108/50/69 
f 108/50/69 113/55/74 114/57/75 109/52/70 
f 109/52/70 114/57/75 115/58/76 110/53/71 
f 110/53/71 115/58/76 116/59/77 111/54/72 
f 111/54/72 116/59/77 112/56/73 107/51/68 
f 112/56/73 117/61/78 118/60/79 113/55/74 
f 113/55/74 118/60/79 119/62/80 114/57/75 
f 114/57/75 119/62/80 120/63/81 115/58/76 
f 115/58/76 120/63/81 121/64/82 116/59/77 
f 116/59/77 121/64/82 117/61/78 112/56/73 
f 117/61/78 122/66/47 123/65/47 118/60/79 
f 118/60/79 123/65/47 124/67/47 119/62/80 
f 119/62/80 124/67/47 125/68/47 120/63/81 
f 120/63/81 125/68/47 126/69/47 121/64/82 
f 121/64/82 126/69/47 122/66/47 117/61/78 
f 122/66/47 127/70/47 123/65/47 
f 123/65/47 127/70/47 124/67/47 
f 124/67/47 127/70/47 125/68/47 
f 125/68/47 127/70/47 126/69/47 
f 126/69/47 127/70/47 122/66/47 
s 8
f 70/2/3 63/72/3 62/71/4 67/1/4 
f 72/5/6 64/73/6 63/72/3 70/2/3 
f 74/8/45 65/75/7 64/74/6 72/7/6 
f 76/11/46 66/76/8 65/75/7 74/8/45 
f 67/1/4 62/71/4 66/76/8 76/11/46 
# 120 polygons - 10 triangles

