# 3ds Max Wavefront OBJ Exporter v0.97b - (c)2007 guruware
# File Created: 03.06.2016 21:23:04

mtllib nametag.mtl

#
# object Plane001
#

v  16.5065 163.5741 47.2232
v  16.5065 173.8170 56.3079
v  14.5288 173.1473 54.2779
v  14.5288 165.6696 47.6456
v  -0.0473 165.6696 47.6456
v  -0.0473 163.5741 47.2232
v  -0.0473 173.1473 54.2779
v  -0.0473 173.8170 56.3079
v  -16.6012 163.5741 47.2231
v  -14.6235 165.6696 47.6456
v  -14.6235 173.1473 54.2779
v  -16.6012 173.8170 56.3079
# 12 vertices

vn -0.2632 -0.4232 0.8669
vn -0.2632 -0.8102 0.5237
vn -0.1865 -0.7888 0.5857
vn -0.1865 -0.4873 0.8531
vn -0.0000 -0.4460 0.8951
vn -0.0000 -0.1976 0.9803
vn -0.0000 -0.8354 0.5497
vn -0.0000 -0.9497 0.3133
vn 0.2632 -0.4232 0.8669
vn 0.1865 -0.4873 0.8531
vn 0.1865 -0.7888 0.5857
vn 0.2632 -0.8102 0.5237
# 12 vertex normals

vt 1.0021 0.0320 0.2694
vt 0.9966 0.4447 0.2694
vt 0.9314 0.3867 0.2694
vt 0.9368 0.0898 -0.2694
vt 0.5021 0.0640 0.2694
vt 0.5021 0.0000 0.2694
vt 0.8644 0.5294 0.5356
vt 0.8644 0.8258 -0.5356
vt 0.4322 0.8258 0.5356
vt 0.4322 0.5294 0.5356
vt 0.4979 0.4760 0.2694
vt 0.4979 0.4119 0.2694
vt 0.0000 0.0320 0.2694
vt 0.0652 0.0898 -0.2694
vt 0.0665 0.3867 0.2694
vt 0.0013 0.4447 0.2694
vt 0.0000 0.5274 0.5356
vt 0.0000 0.8237 -0.5356
# 18 texture coords

g Plane001
usemtl ____
s 1
f 1/1/1 2/2/2 3/3/3 4/4/4 
f 1/1/1 4/4/4 5/5/5 6/6/6 
f 4/7/4 3/8/3 7/9/7 5/10/5 
f 3/3/3 2/2/2 8/11/8 7/12/7 
f 9/13/9 10/14/10 11/15/11 12/16/12 
f 9/13/9 6/6/6 5/5/5 10/14/10 
f 10/17/10 5/10/5 7/9/7 11/18/11 
f 11/15/11 7/12/7 8/11/8 12/16/12 
# 8 polygons

