# 3ds Max Wavefront OBJ Exporter v0.97b - (c)2007 guruware
# File Created: 03.06.2016 21:25:37

mtllib stair2.mtl

#
# object StraightStair006
#

v  -93.8021 8.5509 349.3851
v  -93.8021 13.1241 349.3851
v  -93.7238 13.1241 339.6997
v  -93.5673 3.9776 320.3288
v  -93.7238 17.6974 339.6997
v  -93.6456 17.6974 330.0143
v  -93.6456 22.2706 330.0143
v  -93.5673 22.2706 320.3288
v  -93.8804 3.9776 359.0706
v  -93.8804 8.5509 359.0706
v  -41.0386 22.2706 320.4219
v  -41.1169 22.2706 330.1074
v  -41.1169 17.6974 330.1074
v  -41.0386 3.9776 320.4219
v  -41.1952 17.6974 339.7928
v  -41.1952 13.1241 339.7928
v  -41.2734 13.1241 349.4782
v  -41.2734 8.5509 349.4782
v  -41.3517 3.9776 359.1637
v  -41.3517 8.5509 359.1637
v  -100.5807 3.9776 320.3164
v  -100.8938 3.9776 359.0581
v  -100.8938 8.5509 359.0581
v  -100.5807 26.8439 320.3164
v  -93.5673 26.8439 320.3288
v  -34.3383 3.9776 359.1761
v  -34.3383 8.5509 359.1761
v  -34.0252 3.9776 320.4344
v  -34.0252 26.8439 320.4344
v  -41.0386 26.8439 320.4219
v  -34.2557 13.1342 349.3885
v  -34.2560 13.1166 349.4255
v  -34.2582 8.5509 349.4782
# 33 vertices

vn -1.0000 0.0000 -0.0018
vn 1.0000 0.0000 0.0018
vn 0.0000 1.0000 -0.0000
vn -0.0081 0.0000 1.0000
vn 0.0000 -1.0000 -0.0000
vn 0.0081 0.0000 -1.0000
vn -0.0037 0.8873 0.4613
vn -0.0040 0.8867 0.4623
vn -0.0037 0.8867 0.4623
vn -0.0030 0.8867 0.4622
vn 0.0190 0.8870 0.4612
vn 0.0197 0.8870 0.4612
vn 1.0000 -0.0000 0.0018
vn 1.0000 0.0000 0.0017
vn 1.0000 -0.0001 0.0018
vn -0.0000 1.0000 -0.0000
vn 0.0162 0.0052 0.9997
# 17 vertex normals

vt -0.8103 1.0000 0.0000
vt -0.8103 1.4213 0.0000
vt -1.6206 1.4213 0.0000
vt -3.2412 0.5787 0.0000
vt -1.6206 1.8425 0.0000
vt -2.4309 1.8425 0.0000
vt -2.4309 2.2638 0.0000
vt -3.2412 2.2638 0.0000
vt 0.0000 0.5787 0.0000
vt 0.0000 1.0000 0.0000
vt 3.2412 2.2638 0.0000
vt 2.4309 2.2638 0.0000
vt 2.4309 1.8425 0.0000
vt 3.2412 0.5787 0.0000
vt 1.6206 1.8425 0.0000
vt 1.6206 1.4213 0.0000
vt 0.8103 1.4213 0.0000
vt 0.8103 1.0000 0.0000
vt -0.0000 0.5787 0.0000
vt -0.0000 1.0000 0.0000
vt 1.0000 0.0000 0.0000
vt 1.0000 0.8103 0.0000
vt 0.0000 0.8103 0.0000
vt 0.0000 0.0000 0.0000
vt 1.0000 0.4213 0.0000
vt 0.0000 0.4213 0.0000
vt 3.2412 0.0000 0.0000
vt 3.2412 1.0000 0.0000
vt 1.6851 0.0000 0.0000
vt 1.6851 1.0000 0.0000
vt -20.0840 -12.9973 -0.0000
vt 1.4554 -1.7995 0.0000
vt 0.0000 1.0000 -0.0000
vt -27.3609 1.0000 -0.0000
vt 27.3609 1.0000 -0.0000
vt 25.9055 -1.7995 0.0000
vt 47.4449 -12.9973 -0.0000
vt 54.7218 1.0000 -0.0000
vt -27.3609 0.0000 0.0000
vt -27.3609 1.0000 0.0000
vt 3.1552 0.0000 0.0000
vt 3.1552 1.0000 0.0000
vt -24.2763 0.0000 0.0000
vt -24.2763 1.0000 0.0000
vt 15.7758 0.0000 0.0000
vt 15.7758 1.0000 0.0000
vt -20.1394 0.0000 0.0000
vt -20.1652 0.0000 0.0000
vt -20.5207 1.0000 0.0000
vt 34.5824 1.0000 -0.0000
vt 32.8171 -1.7984 -0.0000
vt -6.8402 1.0000 -0.0000
vt -5.3849 -1.7995 -0.0000
# 53 texture coords

g StraightStair006
usemtl ________
s 1
f 1/1/1 2/2/1 3/3/1 4/4/1 
f 3/3/1 5/5/1 6/6/1 4/4/1 
f 6/6/1 7/7/1 8/8/1 4/4/1 
f 1/1/1 4/4/1 9/9/1 10/10/1 
f 11/11/2 12/12/2 13/13/2 14/14/2 
f 13/13/2 15/15/2 16/16/2 14/14/2 
f 16/16/2 17/17/2 18/18/2 14/14/2 
f 19/19/2 14/14/2 18/18/2 20/20/2 
s 2
f 12/21/3 11/22/3 8/23/3 7/24/3 
s 4
f 13/21/4 12/25/4 7/26/4 6/24/4 
s 2
f 15/21/3 13/22/3 6/23/3 5/24/3 
s 4
f 16/21/4 15/25/4 5/26/4 3/24/4 
s 2
f 17/21/3 16/22/3 3/23/3 2/24/3 
s 4
f 18/21/4 17/25/4 2/26/4 1/24/4 
s 2
f 20/21/3 18/22/3 1/23/3 10/24/3 
s 4
f 19/21/4 20/25/4 10/26/4 9/24/4 
s 2
f 14/24/5 19/27/5 9/28/5 4/10/5 
s 4
f 11/24/6 14/29/6 4/30/6 8/10/6 
s 1
f 21/31/1 22/32/1 23/33/1 24/34/1 
f 10/35/2 9/36/2 4/37/2 25/38/2 
s 2
f 10/39/7 25/24/7 24/10/7 23/40/7 
s 4
f 9/24/4 10/41/4 23/42/4 22/10/4 
f 26/24/4 27/41/4 20/42/4 19/10/4 
s 2
f 4/43/5 9/24/5 22/10/5 21/44/5 
f 28/43/5 26/24/5 19/10/5 14/44/5 
s 4
f 25/24/6 4/45/6 21/46/6 24/10/6 
f 29/24/6 28/45/6 14/46/6 30/10/6 
s 2
f 31/47/8 29/24/9 30/10/10 32/48/11 
f 32/48/11 30/10/10 17/49/12 
s 1
f 28/37/13 29/38/14 31/50/13 33/51/15 
f 26/36/13 28/37/13 33/51/15 27/35/2 
f 17/52/1 30/34/1 14/31/1 18/53/1 
f 18/53/1 14/31/1 19/32/1 20/33/1 
s off
f 27/35/16 33/51/16 18/53/16 20/42/16 
f 33/51/17 32/48/17 17/49/17 18/53/17 
# 34 polygons - 1 triangles

#
# object Box004
#

v  -16.6246 8.6227 346.5977
v  -16.6246 8.6227 320.5750
v  17.1106 8.6227 320.5750
v  17.1106 8.6227 346.5977
v  -16.6246 27.1053 320.3922
v  17.1106 27.1053 320.3922
v  17.1106 13.1453 346.5969
v  -16.6246 13.1351 346.5945
v  -16.7628 3.9102 359.2105
v  -16.7628 3.9102 320.6192
v  16.9725 3.9102 320.6192
v  16.9725 3.9102 359.2105
v  16.9725 8.7123 359.2105
v  -16.7628 8.7123 359.2105
v  16.9725 8.7123 320.6192
v  -16.7628 8.7123 320.6192
v  -17.0353 8.5509 359.2977
v  17.3622 8.5509 359.2137
v  -17.0098 8.5509 346.5957
# 19 vertices

vn 0.0000 -1.0000 0.0000
vn 0.0000 -0.0141 -0.9999
vn -0.0000 0.0006 1.0000
vn 1.0000 0.0000 -0.0000
vn -1.0000 0.0000 -0.0000
vn -0.0001 0.9370 0.3494
vn 0.0000 -1.0000 -0.0000
vn 0.0000 0.0000 1.0000
vn 0.0000 0.0000 -1.0000
vn 0.0000 1.0000 0.0040
vn 0.0000 0.0402 -0.9992
# 11 vertex normals

vt 1.0000 0.0000 0.0000
vt 1.0000 1.0000 0.0000
vt 0.0000 1.0000 0.0000
vt 0.0000 0.0000 0.0000
vt 0.0000 0.2425 0.0000
vt 1.0000 0.2374 0.0000
vt 1.0000 1.0000 1.0000
# 7 texture coords

g Box004
usemtl ________
s 2
f 34/54/18 35/55/18 36/56/18 37/57/18 
s 32
f 36/57/19 35/54/19 38/55/19 39/56/19 
s off
f 37/57/20 40/58/20 41/59/20 34/54/20 
f 40/58/21 37/57/21 36/56/21 39/56/21 
f 41/59/22 38/55/22 35/55/22 34/54/22 
f 39/56/23 38/55/23 41/59/23 40/58/23 
s 2
f 42/54/24 43/55/24 44/56/24 45/57/24 
s 8
f 42/57/25 45/54/25 46/55/25 47/56/25 
s 16
f 45/57/21 44/54/21 48/55/21 46/56/21 
s 32
f 44/57/26 43/54/26 49/55/26 48/56/26 
s 64
f 43/57/22 42/54/22 47/55/22 49/56/22 
s off
f 34/60/27 50/60/27 51/60/27 37/60/27 
f 34/60/28 37/60/28 52/60/28 
# 12 polygons - 1 triangles

#
# object StraightStair007
#

v  17.3878 8.5509 346.5117
v  17.3878 13.1241 346.5117
v  17.4133 13.1241 337.7801
v  17.4645 3.9776 320.3169
v  17.4133 17.6974 337.7801
v  17.4389 17.6974 329.0485
v  17.4389 22.2706 329.0485
v  17.4645 22.2706 320.3169
v  17.3622 3.9776 359.2137
v  17.3622 8.5509 359.2137
v  34.6253 22.2706 320.4008
v  34.5997 22.2706 329.1324
v  34.5997 17.6974 329.1324
v  34.6253 3.9776 320.4008
v  34.5741 17.6974 337.8641
v  34.5741 13.1241 337.8641
v  34.5485 13.1241 346.5957
v  34.5485 8.5509 346.5957
v  34.5230 3.9776 359.2977
v  34.5230 8.5509 359.2977
# 20 vertices

vn -1.0000 -0.0006 -0.0047
vn -1.0000 0.0000 -0.0049
vn -1.0000 -0.0001 -0.0049
vn -1.0000 -0.0002 -0.0044
vn -1.0000 0.0000 -0.0043
vn 1.0000 0.0000 0.0049
vn 1.0000 0.0001 0.0049
vn 1.0000 0.0006 0.0047
vn 1.0000 0.0002 0.0044
vn 1.0000 0.0000 0.0043
vn 0.0000 1.0000 -0.0000
vn -0.0029 0.0000 1.0000
vn -0.0000 1.0000 0.0000
vn 0.0000 -1.0000 -0.0000
vn 0.0029 0.0000 -1.0000
# 15 vertex normals

vt -0.8103 1.0000 0.0000
vt -0.8103 1.4213 0.0000
vt -1.6206 1.4213 0.0000
vt -3.2412 0.5787 0.0000
vt -1.6206 1.8425 0.0000
vt -2.4309 1.8425 0.0000
vt -2.4309 2.2638 0.0000
vt -3.2412 2.2638 0.0000
vt 0.0000 0.5787 0.0000
vt 0.0000 1.0000 0.0000
vt 3.2412 2.2638 0.0000
vt 2.4309 2.2638 0.0000
vt 2.4309 1.8425 0.0000
vt 3.2412 0.5787 0.0000
vt 1.6206 1.8425 0.0000
vt 1.6206 1.4213 0.0000
vt 0.8103 1.4213 0.0000
vt 0.8103 1.0000 0.0000
vt -0.0000 0.5787 0.0000
vt -0.0000 1.0000 0.0000
vt 1.0000 0.0000 0.0000
vt 1.0000 0.8103 0.0000
vt 0.0000 0.8103 0.0000
vt 0.0000 0.0000 0.0000
vt 1.0000 0.4213 0.0000
vt 0.0000 0.4213 0.0000
vt 3.2412 0.0000 0.0000
vt 3.2412 1.0000 0.0000
vt 1.6851 0.0000 0.0000
vt 1.6851 1.0000 0.0000
# 30 texture coords

g StraightStair007
usemtl ________
s 1
f 53/61/29 54/62/30 55/63/30 56/64/31 
f 55/63/30 57/65/30 58/66/30 56/64/31 
f 58/66/30 59/67/30 60/68/30 56/64/31 
f 53/61/29 56/64/31 61/69/32 62/70/33 
f 63/71/34 64/72/34 65/73/34 66/74/35 
f 65/73/34 67/75/34 68/76/34 66/74/35 
f 68/76/34 69/77/34 70/78/36 66/74/35 
f 71/79/37 66/74/35 70/78/36 72/80/38 
s 2
f 64/81/39 63/82/39 60/83/39 59/84/39 
s 4
f 65/81/40 64/85/40 59/86/40 58/84/40 
s 2
f 67/81/39 65/82/39 58/83/39 57/84/39 
s 4
f 68/81/40 67/85/40 57/86/40 55/84/40 
s 2
f 69/81/39 68/82/39 55/83/39 54/84/39 
s 4
f 70/81/40 69/85/40 54/86/40 53/84/40 
s 2
f 72/81/41 70/82/41 53/83/41 62/84/41 
s 4
f 71/81/40 72/85/40 62/86/40 61/84/40 
s 2
f 66/84/42 71/87/42 61/88/42 56/70/42 
s 4
f 63/84/43 66/89/43 56/90/43 60/70/43 
# 18 polygons

#
# object StraightStair008
#

v  94.2510 8.5509 349.3851
v  94.2510 13.1241 349.3851
v  94.1728 13.1241 339.6997
v  94.0162 3.9776 320.3288
v  94.1728 17.6974 339.6997
v  94.0945 17.6974 330.0142
v  94.0945 22.2706 330.0142
v  94.0162 22.2706 320.3288
v  94.3293 3.9777 359.0706
v  94.3293 8.5509 359.0706
v  41.4875 22.2706 320.4219
v  41.5658 22.2706 330.1074
v  41.5658 17.6974 330.1074
v  41.4875 3.9776 320.4219
v  41.6441 17.6974 339.7928
v  41.6441 13.1241 339.7928
v  41.7223 13.1241 349.4782
v  41.7223 8.5509 349.4782
v  41.8006 3.9777 359.1637
v  41.8006 8.5509 359.1637
v  101.0296 3.9776 320.3164
v  101.3427 3.9777 359.0581
v  101.3427 8.5509 359.0581
v  101.0296 26.8439 320.3163
v  94.0162 26.8439 320.3288
v  34.7872 3.9777 359.1761
v  34.7872 8.5509 359.1761
v  34.4742 3.9776 320.4344
v  34.4742 26.8439 320.4344
v  41.4875 26.8439 320.4219
v  34.7046 13.1342 349.3884
v  34.7049 13.1166 349.4255
v  34.7071 8.5509 349.4782
# 33 vertices

vn 1.0000 0.0000 -0.0018
vn -1.0000 -0.0000 0.0018
vn -0.0000 1.0000 -0.0000
vn 0.0081 0.0000 1.0000
vn 0.0000 -1.0000 0.0000
vn -0.0081 -0.0000 -1.0000
vn 0.0037 0.8873 0.4613
vn 0.0040 0.8867 0.4623
vn 0.0037 0.8867 0.4623
vn 0.0030 0.8867 0.4622
vn -0.0190 0.8870 0.4612
vn -0.0197 0.8870 0.4612
vn -1.0000 -0.0000 0.0017
vn -1.0000 -0.0001 0.0018
vn 0.0000 1.0000 -0.0000
vn -0.0162 0.0052 0.9997
# 16 vertex normals

vt -0.8103 1.0000 0.0000
vt -0.8103 1.4213 0.0000
vt -1.6206 1.4213 0.0000
vt -3.2412 0.5787 0.0000
vt -1.6206 1.8425 0.0000
vt -2.4309 1.8425 0.0000
vt -2.4309 2.2638 0.0000
vt -3.2412 2.2638 0.0000
vt 0.0000 0.5787 0.0000
vt 0.0000 1.0000 0.0000
vt 3.2412 2.2638 0.0000
vt 2.4309 2.2638 0.0000
vt 2.4309 1.8425 0.0000
vt 3.2412 0.5787 0.0000
vt 1.6206 1.8425 0.0000
vt 1.6206 1.4213 0.0000
vt 0.8103 1.4213 0.0000
vt 0.8103 1.0000 0.0000
vt -0.0000 0.5787 0.0000
vt -0.0000 1.0000 0.0000
vt 1.0000 0.0000 0.0000
vt 1.0000 0.8103 0.0000
vt 0.0000 0.8103 0.0000
vt 0.0000 0.0000 0.0000
vt 1.0000 0.4213 0.0000
vt 0.0000 0.4213 0.0000
vt 3.2412 0.0000 0.0000
vt 3.2412 1.0000 0.0000
vt 1.6851 0.0000 0.0000
vt 1.6851 1.0000 0.0000
vt -20.0840 -12.9973 -0.0000
vt 1.4554 -1.7995 0.0000
vt 0.0000 1.0000 -0.0000
vt -27.3609 1.0000 -0.0000
vt 27.3609 1.0000 -0.0000
vt 25.9055 -1.7995 0.0000
vt 47.4449 -12.9973 -0.0000
vt 54.7218 1.0000 -0.0000
vt -27.3609 0.0000 0.0000
vt -27.3609 1.0000 0.0000
vt 3.1552 0.0000 0.0000
vt 3.1552 1.0000 0.0000
vt -24.2763 0.0000 0.0000
vt -24.2763 1.0000 0.0000
vt 15.7758 0.0000 0.0000
vt 15.7758 1.0000 0.0000
vt -20.1394 0.0000 0.0000
vt -20.1652 0.0000 0.0000
vt -20.5207 1.0000 0.0000
vt 34.5824 1.0000 -0.0000
vt 32.8171 -1.7984 -0.0000
vt -6.8402 1.0000 -0.0000
vt -5.3849 -1.7995 -0.0000
# 53 texture coords

g StraightStair008
usemtl ________
s 1
f 76/94/44 75/93/44 74/92/44 73/91/44 
f 76/94/44 78/96/44 77/95/44 75/93/44 
f 76/94/44 80/98/44 79/97/44 78/96/44 
f 82/100/44 81/99/44 76/94/44 73/91/44 
f 86/104/45 85/103/45 84/102/45 83/101/45 
f 86/104/45 88/106/45 87/105/45 85/103/45 
f 86/104/45 90/108/45 89/107/45 88/106/45 
f 92/110/45 90/108/45 86/104/45 91/109/45 
s 2
f 79/114/46 80/113/46 83/112/46 84/111/46 
s 4
f 78/114/47 79/116/47 84/115/47 85/111/47 
s 2
f 77/114/46 78/113/46 85/112/46 87/111/46 
s 4
f 75/114/47 77/116/47 87/115/47 88/111/47 
s 2
f 74/114/46 75/113/46 88/112/46 89/111/46 
s 4
f 73/114/47 74/116/47 89/115/47 90/111/47 
s 2
f 82/114/46 73/113/46 90/112/46 92/111/46 
s 4
f 81/114/47 82/116/47 92/115/47 91/111/47 
s 2
f 76/100/48 81/118/48 91/117/48 86/114/48 
s 4
f 80/100/49 76/120/49 86/119/49 83/114/49 
s 1
f 96/124/44 95/123/44 94/122/44 93/121/44 
f 97/128/45 76/127/45 81/126/45 82/125/45 
s 2
f 95/130/50 96/100/50 97/114/50 82/129/50 
s 4
f 94/100/47 95/132/47 82/131/47 81/114/47 
f 91/100/47 92/132/47 99/131/47 98/114/47 
s 2
f 93/134/48 94/100/48 81/114/48 76/133/48 
f 86/134/48 91/100/48 98/114/48 100/133/48 
s 4
f 96/100/49 93/136/49 76/135/49 97/114/49 
f 102/100/49 86/136/49 100/135/49 101/114/49 
s 2
f 104/138/54 102/100/53 101/114/52 103/137/51 
f 89/139/55 102/100/53 104/138/54 
s 1
f 105/141/57 103/140/45 101/128/56 100/127/45 
f 99/125/45 105/141/57 100/127/45 98/126/45 
f 90/143/44 86/121/44 102/124/44 89/142/44 
f 92/123/44 91/122/44 86/121/44 90/143/44 
s off
f 92/132/58 90/143/58 105/141/58 99/125/58 
f 90/143/59 89/139/59 104/138/59 105/141/59 
# 34 polygons - 1 triangles

#
# object StraightStair009
#

v  -34.1706 8.5509 346.5117
v  -34.1706 13.1241 346.5117
v  -34.1450 13.1241 337.7801
v  -34.0938 3.9776 320.3169
v  -34.1450 17.6974 337.7801
v  -34.1194 17.6974 329.0485
v  -34.1194 22.2706 329.0485
v  -34.0938 22.2706 320.3169
v  -34.1961 3.9776 359.2137
v  -34.1961 8.5509 359.2137
v  -16.9331 22.2706 320.4008
v  -16.9586 22.2706 329.1324
v  -16.9586 17.6974 329.1324
v  -16.9331 3.9776 320.4008
v  -16.9842 17.6974 337.8641
v  -16.9842 13.1241 337.8641
v  -17.0098 13.1241 346.5957
v  -17.0098 8.5509 346.5957
v  -17.0353 3.9776 359.2977
v  -17.0353 8.5509 359.2977
# 20 vertices

vn -1.0000 -0.0006 -0.0047
vn -1.0000 0.0000 -0.0049
vn -1.0000 -0.0001 -0.0049
vn -1.0000 -0.0002 -0.0044
vn -1.0000 0.0000 -0.0043
vn 1.0000 0.0000 0.0049
vn 1.0000 0.0001 0.0049
vn 1.0000 0.0006 0.0047
vn 1.0000 0.0002 0.0044
vn 1.0000 0.0000 0.0043
vn 0.0000 1.0000 -0.0000
vn -0.0029 0.0000 1.0000
vn -0.0000 1.0000 0.0000
vn 0.0000 -1.0000 -0.0000
vn 0.0029 0.0000 -1.0000
# 15 vertex normals

vt -0.8103 1.0000 0.0000
vt -0.8103 1.4213 0.0000
vt -1.6206 1.4213 0.0000
vt -3.2412 0.5787 0.0000
vt -1.6206 1.8425 0.0000
vt -2.4309 1.8425 0.0000
vt -2.4309 2.2638 0.0000
vt -3.2412 2.2638 0.0000
vt 0.0000 0.5787 0.0000
vt 0.0000 1.0000 0.0000
vt 3.2412 2.2638 0.0000
vt 2.4309 2.2638 0.0000
vt 2.4309 1.8425 0.0000
vt 3.2412 0.5787 0.0000
vt 1.6206 1.8425 0.0000
vt 1.6206 1.4213 0.0000
vt 0.8103 1.4213 0.0000
vt 0.8103 1.0000 0.0000
vt -0.0000 0.5787 0.0000
vt -0.0000 1.0000 0.0000
vt 1.0000 0.0000 0.0000
vt 1.0000 0.8103 0.0000
vt 0.0000 0.8103 0.0000
vt 0.0000 0.0000 0.0000
vt 1.0000 0.4213 0.0000
vt 0.0000 0.4213 0.0000
vt 3.2412 0.0000 0.0000
vt 3.2412 1.0000 0.0000
vt 1.6851 0.0000 0.0000
vt 1.6851 1.0000 0.0000
# 30 texture coords

g StraightStair009
usemtl ________
s 1
f 106/144/60 107/145/61 108/146/61 109/147/62 
f 108/146/61 110/148/61 111/149/61 109/147/62 
f 111/149/61 112/150/61 113/151/61 109/147/62 
f 106/144/60 109/147/62 114/152/63 115/153/64 
f 116/154/65 117/155/65 118/156/65 119/157/66 
f 118/156/65 120/158/65 121/159/65 119/157/66 
f 121/159/65 122/160/65 123/161/67 119/157/66 
f 124/162/68 119/157/66 123/161/67 125/163/69 
s 2
f 117/164/70 116/165/70 113/166/70 112/167/70 
s 4
f 118/164/71 117/168/71 112/169/71 111/167/71 
s 2
f 120/164/70 118/165/70 111/166/70 110/167/70 
s 4
f 121/164/71 120/168/71 110/169/71 108/167/71 
s 2
f 122/164/70 121/165/70 108/166/70 107/167/70 
s 4
f 123/164/71 122/168/71 107/169/71 106/167/71 
s 2
f 125/164/72 123/165/72 106/166/72 115/167/72 
s 4
f 124/164/71 125/168/71 115/169/71 114/167/71 
s 2
f 119/167/73 124/170/73 114/171/73 109/153/73 
s 4
f 116/167/74 119/172/74 109/173/74 113/153/74 
# 18 polygons

#
# object Box005
#

v  -100.8961 0.0918 368.8411
v  -100.8961 0.0918 320.5865
v  -33.5096 0.0918 320.5865
v  -33.5096 0.0918 368.8411
v  33.8768 0.0918 320.5865
v  33.8768 0.0918 368.8411
v  101.2632 0.0918 320.5865
v  101.2632 0.0918 368.8411
v  -100.8961 3.8152 368.8411
v  -33.5096 3.8152 368.8411
v  -33.5096 3.8152 320.5865
v  -100.8961 3.8152 320.5865
v  33.8768 3.8152 368.8411
v  33.8768 3.8152 320.5865
v  101.2632 3.8152 368.8411
v  101.2632 3.8152 320.5865
# 16 vertices

vn 0.0000 -1.0000 -0.0000
vn 0.0000 1.0000 -0.0000
vn 0.0000 0.0000 1.0000
vn 1.0000 0.0000 -0.0000
vn 0.0000 0.0000 -1.0000
vn -1.0000 0.0000 -0.0000
# 6 vertex normals

vt 1.0000 0.0000 0.0000
vt 1.0000 1.0000 0.0000
vt 0.6667 1.0000 0.0000
vt 0.6667 0.0000 0.0000
vt 0.3333 1.0000 0.0000
vt 0.3333 0.0000 0.0000
vt 0.0000 1.0000 0.0000
vt 0.0000 0.0000 0.0000
# 8 texture coords

g Box005
usemtl ________
s 2
f 126/174/75 127/175/75 128/176/75 129/177/75 
f 129/177/75 128/176/75 130/178/75 131/179/75 
f 131/179/75 130/178/75 132/180/75 133/181/75 
s 4
f 134/181/76 135/179/76 136/178/76 137/180/76 
f 135/179/76 138/177/76 139/176/76 136/178/76 
f 138/177/76 140/174/76 141/175/76 139/176/76 
s 8
f 126/181/77 129/179/77 135/178/77 134/180/77 
f 129/179/77 131/177/77 138/176/77 135/178/77 
f 131/177/77 133/174/77 140/175/77 138/176/77 
s 16
f 133/181/78 132/174/78 141/175/78 140/180/78 
s 32
f 132/181/79 130/179/79 139/178/79 141/180/79 
f 130/179/79 128/177/79 136/176/79 139/178/79 
f 128/177/79 127/174/79 137/175/79 136/176/79 
s 64
f 127/181/80 126/174/80 134/175/80 137/180/80 
# 14 polygons

