# 3ds Max Wavefront OBJ Exporter v0.97b - (c)2007 guruware
# File Created: 03.06.2016 21:25:11

mtllib stone4.mtl

#
# object Object008
#

v  -270.6748 27.0158 319.7119
v  270.0681 27.0158 319.7119
v  270.0681 27.0158 -147.8914
v  -270.6748 27.0158 -147.8914
# 4 vertices

vn 0.0000 1.0000 -0.0000
# 1 vertex normals

vt 0.0000 0.0000 0.0000
vt 1.0000 0.0000 0.0000
vt 1.0000 1.0000 0.0000
vt 0.0000 1.0000 0.0000
# 4 texture coords

g Object008
usemtl _________________
s 4
f 1/1/1 2/2/1 3/3/1 4/4/1 
# 1 polygons

