# 3ds Max Wavefront OBJ Exporter v0.97b - (c)2007 guruware
# File Created: 03.06.2016 21:25:01

mtllib stone3.mtl

#
# object Object006
#

v  -192.3794 49.5692 171.4998
v  192.0308 49.5692 171.4998
v  192.0308 49.5692 -90.4291
v  -192.3794 49.5692 -90.4291
# 4 vertices

vn 0.0000 1.0000 -0.0000
# 1 vertex normals

vt 0.0000 0.0000 0.0000
vt 1.0000 0.0000 0.0000
vt 1.0000 1.0000 0.0000
vt 0.0000 1.0000 0.0000
# 4 texture coords

g Object006
usemtl ____________
s 4
f 1/1/1 2/2/1 3/3/1 4/4/1 
# 1 polygons

