# 3ds Max Wavefront OBJ Exporter v0.97b - (c)2007 guruware
# File Created: 03.06.2016 21:23:28

mtllib underwings2.mtl

#
# object Object
#

v  75.3075 143.9113 43.7283
v  80.5544 143.9113 43.7283
v  67.1530 140.2477 36.4539
v  61.5513 140.2477 36.4539
v  82.5378 140.4388 47.4076
v  89.2878 140.4388 47.5792
v  101.6145 135.1239 55.7618
v  108.3972 135.1239 55.7618
v  122.5130 133.3553 67.2030
v  128.4724 132.8031 67.3491
v  144.4785 133.9245 80.5134
v  151.4135 135.0577 81.4324
v  61.5513 135.0719 36.4539
v  75.3075 139.0586 43.7283
v  82.5378 135.5860 47.4076
v  101.6145 130.2711 55.7618
v  122.5130 128.5026 67.2030
v  144.4785 129.0718 80.5134
v  151.4135 130.2050 81.4324
v  80.5544 139.0586 43.7283
v  67.1530 135.0719 36.4539
v  89.2878 135.5860 47.5792
v  108.3972 130.2711 55.7618
v  128.4724 127.9503 67.3491
v  67.1530 140.2037 -36.2894
v  80.5544 144.1904 -43.5637
v  74.2628 144.1904 -43.5637
v  61.3627 140.2037 -36.2894
v  89.2878 140.7178 -48.8224
v  82.5585 140.7178 -47.8770
v  108.3972 135.4055 -55.5973
v  101.7094 135.4029 -55.5973
v  128.4724 133.0821 -67.1845
v  120.9910 132.7808 -65.2984
v  151.4135 135.3368 -81.8913
v  144.9571 133.4315 -80.0203
v  80.5544 139.0586 -43.5637
v  67.1530 135.0719 -36.2894
v  89.2878 135.5860 -48.8224
v  108.3972 130.2737 -55.5973
v  128.4724 127.9503 -67.1845
v  151.4135 130.2050 -81.8913
v  144.9571 128.2997 -80.0203
v  120.9910 127.6490 -65.2985
v  101.7094 130.2711 -55.5973
v  82.5585 135.5860 -47.8770
v  74.2628 139.0586 -43.5637
v  61.3627 135.0719 -36.2894
v  -75.0164 143.9113 43.7283
v  -61.2601 140.2477 36.4539
v  -66.8618 140.2477 36.4539
v  -80.2633 143.9113 43.7283
v  -82.2467 140.4388 47.4076
v  -88.9967 140.4388 47.5792
v  -101.3234 135.1239 55.7618
v  -108.1061 135.1239 55.7618
v  -122.2219 133.3553 67.2030
v  -128.1812 132.8031 67.3491
v  -144.1873 133.9245 80.5134
v  -151.1223 135.0577 81.4324
v  -75.0164 139.0586 43.7283
v  -61.2601 135.0719 36.4539
v  -82.2467 135.5860 47.4076
v  -101.3234 130.2711 55.7618
v  -122.2219 128.5026 67.2030
v  -144.1873 129.0718 80.5134
v  -151.1223 130.2050 81.4324
v  -80.2633 139.0586 43.7283
v  -66.8618 135.0719 36.4539
v  -88.9967 135.5860 47.5792
v  -108.1061 130.2711 55.7618
v  -128.1812 127.9503 67.3491
v  -66.8618 140.2037 -36.2894
v  -61.0716 140.2037 -36.2894
v  -73.9717 144.1904 -43.5637
v  -80.2633 144.1904 -43.5637
v  -82.2674 140.7178 -47.8770
v  -88.9967 140.7178 -48.8224
v  -101.4183 135.4029 -55.5973
v  -108.1061 135.4055 -55.5973
v  -120.6999 132.7808 -65.2984
v  -128.1812 133.0821 -67.1845
v  -144.6660 133.4315 -80.0203
v  -151.1223 135.3368 -81.8913
v  -80.2633 139.0586 -43.5637
v  -66.8618 135.0719 -36.2894
v  -88.9967 135.5860 -48.8224
v  -108.1061 130.2737 -55.5973
v  -128.1812 127.9503 -67.1845
v  -151.1223 130.2050 -81.8913
v  -144.6660 128.2997 -80.0203
v  -120.6999 127.6490 -65.2985
v  -101.4183 130.2711 -55.5973
v  -82.2674 135.5860 -47.8770
v  -73.9717 139.0586 -43.5637
v  -61.0716 135.0719 -36.2894
# 96 vertices

vn 0.0000 0.8931 -0.4498
vn -0.0205 0.7470 0.6645
vn -0.0207 0.8084 0.5883
vn -0.0063 0.7261 0.6876
vn 0.0000 0.7272 0.6864
vn -0.0014 0.8836 0.4682
vn 0.0074 0.9725 0.2326
vn 0.1278 0.9918 -0.0050
vn 0.1203 0.9839 -0.1320
vn -0.2340 0.9659 0.1107
vn -0.2560 0.9579 0.1296
vn -0.6147 -0.0000 0.7887
vn -0.6147 0.0000 0.7887
vn -0.6070 -0.0000 0.7947
vn -0.6081 -0.0000 0.7939
vn -0.5788 -0.0000 0.8154
vn -0.5632 -0.0000 0.8263
vn -0.5923 -0.0000 0.8058
vn -0.5805 -0.0000 0.8143
vn -0.6477 0.0000 0.7619
vn -0.6468 0.0000 0.7626
vn -0.4665 0.0000 0.8845
vn -0.4255 0.0000 0.9049
vn -0.1917 0.0000 0.9815
vn 0.5842 0.0000 -0.8116
vn 0.6247 0.0000 -0.7809
vn 0.5881 0.0000 -0.8088
vn 0.5407 0.0000 -0.8412
vn 0.5379 0.0000 -0.8430
vn 0.5844 0.0000 -0.8115
vn 0.6013 0.0000 -0.7990
vn 0.6594 -0.0000 -0.7518
vn 0.6596 0.0000 -0.7516
vn 0.6709 -0.0000 -0.7415
vn 0.0000 0.8769 0.4806
vn -0.0299 0.7740 -0.6325
vn -0.1368 0.7015 -0.6994
vn -0.1117 0.7466 -0.6558
vn 0.0000 0.7789 -0.6271
vn -0.0117 0.9389 -0.3439
vn -0.0088 0.8298 -0.5580
vn -0.1091 0.9888 -0.1016
vn -0.1813 0.9111 -0.3702
vn -0.5070 0.7520 -0.4213
vn -0.4920 0.7692 -0.4078
vn 0.6449 0.0000 0.7643
vn 0.6438 0.0000 0.7652
vn 0.6247 0.0000 0.7809
vn 0.5914 0.0000 0.8064
vn 0.5424 0.0000 0.8401
vn 0.5457 0.0000 0.8380
vn 0.5741 0.0000 0.8188
vn 0.6678 -0.0000 0.7444
vn 0.6675 -0.0000 0.7447
vn 0.6868 -0.0000 0.7269
vn 0.6868 0.0000 0.7269
vn -0.3928 0.0000 -0.9196
vn -0.5600 0.0000 -0.8285
vn -0.5227 0.0000 -0.8525
vn -0.6327 0.0000 -0.7744
vn -0.6358 0.0000 -0.7718
vn -0.5611 -0.0000 -0.8278
vn -0.5476 -0.0000 -0.8368
vn -0.5476 -0.0000 -0.8367
vn -0.5723 -0.0000 -0.8200
vn -0.6234 -0.0000 -0.7819
vn -0.6246 -0.0000 -0.7809
vn -0.6392 -0.0000 -0.7691
vn 0.0205 0.7470 0.6645
vn 0.0063 0.7261 0.6876
vn 0.0207 0.8084 0.5883
vn 0.0014 0.8836 0.4682
vn -0.0074 0.9725 0.2326
vn -0.1278 0.9918 -0.0050
vn -0.1203 0.9839 -0.1320
vn 0.2340 0.9659 0.1107
vn 0.2560 0.9579 0.1296
vn 0.6147 -0.0000 0.7887
vn 0.6081 -0.0000 0.7939
vn 0.6070 -0.0000 0.7947
vn 0.6147 0.0000 0.7887
vn 0.5788 -0.0000 0.8154
vn 0.5632 -0.0000 0.8263
vn 0.5805 -0.0000 0.8143
vn 0.5923 -0.0000 0.8058
vn 0.6468 0.0000 0.7626
vn 0.6477 0.0000 0.7619
vn 0.4665 0.0000 0.8845
vn 0.4255 0.0000 0.9049
vn 0.1917 0.0000 0.9815
vn -0.5842 0.0000 -0.8116
vn -0.5881 0.0000 -0.8088
vn -0.6247 0.0000 -0.7809
vn -0.5407 0.0000 -0.8412
vn -0.5379 0.0000 -0.8430
vn -0.6013 0.0000 -0.7990
vn -0.5844 0.0000 -0.8115
vn -0.6596 0.0000 -0.7516
vn -0.6594 -0.0000 -0.7518
vn -0.6709 -0.0000 -0.7415
vn 0.0299 0.7740 -0.6325
vn 0.1117 0.7466 -0.6558
vn 0.1368 0.7015 -0.6994
vn 0.0088 0.8298 -0.5580
vn 0.0117 0.9389 -0.3439
vn 0.1813 0.9111 -0.3702
vn 0.1091 0.9888 -0.1016
vn 0.4920 0.7692 -0.4078
vn 0.5070 0.7520 -0.4213
vn -0.6449 0.0000 0.7643
vn -0.6247 0.0000 0.7809
vn -0.6438 0.0000 0.7652
vn -0.5914 0.0000 0.8064
vn -0.5424 0.0000 0.8401
vn -0.5457 0.0000 0.8380
vn -0.5741 0.0000 0.8188
vn -0.6675 -0.0000 0.7447
vn -0.6678 -0.0000 0.7444
vn -0.6868 -0.0000 0.7269
vn -0.6868 0.0000 0.7269
vn 0.3928 0.0000 -0.9196
vn 0.5227 0.0000 -0.8525
vn 0.5600 0.0000 -0.8285
vn 0.6327 0.0000 -0.7744
vn 0.6358 0.0000 -0.7718
vn 0.5476 -0.0000 -0.8368
vn 0.5611 -0.0000 -0.8278
vn 0.5723 -0.0000 -0.8200
vn 0.5476 -0.0000 -0.8367
vn 0.6246 -0.0000 -0.7809
vn 0.6234 -0.0000 -0.7819
vn 0.6392 -0.0000 -0.7691
# 132 vertex normals

vt 0.1552 0.2311 0.9826
vt 0.2134 0.2311 0.9826
vt 0.0647 0.2756 0.7614
vt 0.0026 0.2756 0.7614
vt 0.2354 0.2086 0.7729
vt 0.3103 0.2076 0.7729
vt 0.4470 0.1575 0.4519
vt 0.5223 0.1575 0.4519
vt 0.6789 0.0875 0.3451
vt 0.7450 0.0866 0.3118
vt 0.9226 0.0061 0.3795
vt 0.9995 0.0005 0.4479
vt 0.0026 0.2756 0.4488
vt 0.1552 0.2311 0.6896
vt 0.2354 0.2086 0.4798
vt 0.4470 0.1575 0.1589
vt 0.6789 0.0875 0.0521
vt 0.9226 0.0061 0.0864
vt 0.9995 0.0005 0.1549
vt 0.2134 0.2311 0.6896
vt 0.0647 0.2756 0.4488
vt 0.3103 0.2076 0.4798
vt 0.5223 0.1575 0.1589
vt 0.7450 0.0866 0.0187
vt 0.0647 0.7206 0.7587
vt 0.2134 0.7651 0.9995
vt 0.1436 0.7651 0.9995
vt 0.0005 0.7206 0.7587
vt 0.3103 0.7972 0.7898
vt 0.2356 0.7914 0.7898
vt 0.5223 0.8387 0.4689
vt 0.4481 0.8387 0.4688
vt 0.7450 0.9095 0.3286
vt 0.6620 0.8980 0.3104
vt 0.9995 0.9995 0.4648
vt 0.9279 0.9881 0.3497
vt 0.2134 0.7651 0.6896
vt 0.0647 0.7206 0.4488
vt 0.3103 0.7972 0.4798
vt 0.5223 0.8387 0.1590
vt 0.7450 0.9095 0.0187
vt 0.9995 0.9995 0.1549
vt 0.9279 0.9881 0.0398
vt 0.6620 0.8980 0.0005
vt 0.4481 0.8387 0.1589
vt 0.2356 0.7914 0.4798
vt 0.1436 0.7651 0.6896
vt 0.0005 0.7206 0.4488
# 48 texture coords

g Object
usemtl ________
s 1
f 1/1/1 2/2/1 3/3/1 4/4/1 
s 2
f 5/5/2 6/6/3 2/2/4 1/1/5 
f 7/7/6 8/8/7 6/6/3 5/5/2 
f 9/9/8 10/10/9 8/8/7 7/7/6 
f 11/11/10 12/12/11 10/10/9 9/9/8 
s 4
f 4/4/12 13/13/13 14/14/14 1/1/15 
f 5/5/16 1/1/15 14/14/14 15/15/17 
f 15/15/17 16/16/18 7/7/19 5/5/16 
f 16/16/18 17/17/20 9/9/21 7/7/19 
f 18/18/22 11/11/23 9/9/21 17/17/20 
f 19/19/24 12/12/24 11/11/23 18/18/22 
s 8
f 20/20/25 21/21/26 3/3/26 2/2/27 
f 6/6/28 22/22/29 20/20/25 2/2/27 
f 22/22/29 6/6/28 8/8/30 23/23/31 
f 23/23/31 8/8/30 10/10/32 24/24/33 
f 19/19/34 24/24/33 10/10/32 12/12/34 
s 1
f 25/25/35 26/26/35 27/27/35 28/28/35 
s 2
f 26/26/36 29/29/37 30/30/38 27/27/39 
f 29/29/37 31/31/40 32/32/41 30/30/38 
f 31/31/40 33/33/42 34/34/43 32/32/41 
f 33/33/42 35/35/44 36/36/45 34/34/43 
s 4
f 37/37/46 26/26/47 25/25/48 38/38/48 
f 29/29/49 26/26/47 37/37/46 39/39/50 
f 31/31/51 29/29/49 39/39/50 40/40/52 
f 40/40/52 41/41/53 33/33/54 31/31/51 
f 42/42/55 35/35/56 33/33/54 41/41/53 
s 8
f 42/42/57 43/43/58 36/36/59 35/35/57 
f 34/34/60 36/36/59 43/43/58 44/44/61 
f 34/34/60 44/44/61 45/45/62 32/32/63 
f 32/32/63 45/45/62 46/46/64 30/30/65 
f 30/30/65 46/46/64 47/47/66 27/27/67 
f 47/47/66 48/48/68 28/28/68 27/27/67 
s 1
f 49/1/1 50/4/1 51/3/1 52/2/1 
s 2
f 53/5/69 49/1/5 52/2/70 54/6/71 
f 55/7/72 53/5/69 54/6/71 56/8/73 
f 57/9/74 55/7/72 56/8/73 58/10/75 
f 59/11/76 57/9/74 58/10/75 60/12/77 
s 4
f 50/4/78 49/1/79 61/14/80 62/13/81 
f 53/5/82 63/15/83 61/14/80 49/1/79 
f 63/15/83 53/5/82 55/7/84 64/16/85 
f 64/16/85 55/7/84 57/9/86 65/17/87 
f 66/18/88 65/17/87 57/9/86 59/11/89 
f 67/19/90 66/18/88 59/11/89 60/12/90 
s 8
f 68/20/91 52/2/92 51/3/93 69/21/93 
f 54/6/94 52/2/92 68/20/91 70/22/95 
f 70/22/95 71/23/96 56/8/97 54/6/94 
f 71/23/96 72/24/98 58/10/99 56/8/97 
f 67/19/100 60/12/100 58/10/99 72/24/98 
s 1
f 73/25/35 74/28/35 75/27/35 76/26/35 
s 2
f 76/26/101 75/27/39 77/30/102 78/29/103 
f 78/29/103 77/30/102 79/32/104 80/31/105 
f 80/31/105 79/32/104 81/34/106 82/33/107 
f 82/33/107 81/34/106 83/36/108 84/35/109 
s 4
f 85/37/110 86/38/111 73/25/111 76/26/112 
f 78/29/113 87/39/114 85/37/110 76/26/112 
f 80/31/115 88/40/116 87/39/114 78/29/113 
f 88/40/116 80/31/115 82/33/117 89/41/118 
f 90/42/119 89/41/118 82/33/117 84/35/120 
s 8
f 90/42/121 84/35/121 83/36/122 91/43/123 
f 81/34/124 92/44/125 91/43/123 83/36/122 
f 81/34/124 79/32/126 93/45/127 92/44/125 
f 79/32/126 77/30/128 94/46/129 93/45/127 
f 77/30/128 75/27/130 95/47/131 94/46/129 
f 95/47/131 75/27/130 74/28/132 96/48/132 
# 64 polygons

