# 3ds Max Wavefront OBJ Exporter v0.97b - (c)2007 guruware
# File Created: 03.06.2016 21:23:17

mtllib upperHouse.mtl

#
# object Box075
#

v  -75.2987 136.9019 38.2533
v  75.5899 136.9019 38.2533
v  75.5899 166.7086 38.2533
v  -75.2987 166.7086 38.2533
v  75.5899 136.9019 -37.4572
v  75.5899 166.7086 -37.4572
v  -75.2987 136.9019 -37.4572
v  -75.2987 166.7086 -37.4572
# 8 vertices

vn 0.0000 0.0000 1.0000
vn 1.0000 0.0000 -0.0000
vn 0.0000 0.0000 -1.0000
vn -1.0000 0.0000 -0.0000
# 4 vertex normals

vt 0.0000 0.3125 9.8425
vt 0.7404 0.3125 9.8425
vt 0.7404 0.5769 -9.8425
vt 0.0000 0.5769 -9.8425
vt 0.5241 0.6251 9.8425
vt 1.0000 0.6251 9.8425
vt 1.0000 0.8895 -9.8425
vt 0.5241 0.8895 -9.8425
vt 0.7404 0.2644 9.8425
vt 0.0000 0.2644 9.8425
vt 0.0000 0.0000 -9.8425
vt 0.7404 0.0000 -9.8425
vt 0.4759 0.8895 9.8425
vt 0.0000 0.8895 9.8425
vt 0.0000 0.6251 -9.8425
vt 0.4759 0.6251 -9.8425
# 16 texture coords

g Box075
usemtl house1
s 8
f 1/1/1 2/2/1 3/3/1 4/4/1 
s 16
f 2/5/2 5/6/2 6/7/2 3/8/2 
s 32
f 5/9/3 7/10/3 8/11/3 6/12/3 
s 64
f 7/13/4 1/14/4 4/15/4 8/16/4 
# 4 polygons

