# 3ds Max Wavefront OBJ Exporter v0.97b - (c)2007 guruware
# File Created: 04.06.2016 13:35:20

mtllib wall1.mtl

#
# object Box063
#

v  685.3292 1.0121 -427.4796
v  685.3292 1.0121 -400.6729
v  -687.1115 1.0121 -400.6722
v  -687.1115 1.0121 -427.4789
v  685.3292 80.4406 -427.4796
v  -687.1115 80.4406 -427.4789
v  -687.1115 80.4406 -400.6722
v  685.3292 80.4406 -400.6729
# 8 vertices

vn 0.0000 -1.0000 -0.0000
vn 0.0000 1.0000 -0.0000
vn -0.0000 0.0000 -1.0000
vn -1.0000 0.0000 0.0000
vn 0.0000 0.0000 1.0000
vn 1.0000 0.0000 -0.0000
# 6 vertex normals

vt 1.0000 0.0000 0.0000
vt 1.0000 1.0000 0.0000
vt 0.0000 1.0000 0.0000
vt 0.0000 0.0000 0.0000
# 4 texture coords

g Box063
usemtl ____1
s 2
f 1/1/1 2/2/1 3/3/1 4/4/1 
s 4
f 5/4/2 6/1/2 7/2/2 8/3/2 
s 8
f 1/4/3 4/1/3 6/2/3 5/3/3 
s 16
f 4/4/4 3/1/4 7/2/4 6/3/4 
s 32
f 3/4/5 2/1/5 8/2/5 7/3/5 
s 64
f 2/4/6 1/1/6 5/2/6 8/3/6 
# 6 polygons

