# 3ds Max Wavefront OBJ Exporter v0.97b - (c)2007 guruware
# File Created: 04.06.2016 13:44:34

mtllib column2.mtl

#
# object Cylinder019
#

v  -25.9008 13.8453 1142.1689
v  -22.6532 13.8453 1140.1357
v  -21.9170 13.8453 1141.0870
v  -21.6613 13.8453 1142.1689
v  -25.1646 13.8453 1139.0538
v  -23.7810 13.8453 1139.4296
v  -28.0205 13.8453 1139.4296
v  -26.6370 13.8453 1139.0538
v  -29.8846 13.8453 1141.0870
v  -29.1484 13.8453 1140.1357
v  -29.8846 13.8453 1143.2509
v  -30.1403 13.8453 1142.1689
v  -28.0205 13.8453 1144.9083
v  -29.1484 13.8453 1144.2021
v  -25.1646 13.8453 1145.2841
v  -26.6370 13.8453 1145.2841
v  -22.6532 13.8453 1144.2021
v  -23.7810 13.8453 1144.9083
v  -21.9170 13.8453 1143.2509
v  -21.9170 28.8630 1141.0870
v  -21.6613 28.8630 1142.1689
v  -22.6532 28.8630 1140.1357
v  -23.7810 28.8630 1139.4296
v  -25.1646 28.8630 1139.0538
v  -26.6370 28.8630 1139.0538
v  -28.0205 28.8630 1139.4296
v  -29.1484 28.8630 1140.1357
v  -29.8846 28.8630 1141.0870
v  -30.1403 28.8630 1142.1689
v  -29.8846 28.8630 1143.2509
v  -29.1484 28.8630 1144.2021
v  -28.0205 28.8630 1144.9083
v  -26.6370 28.8630 1145.2841
v  -25.1646 28.8630 1145.2841
v  -23.7810 28.8630 1144.9083
v  -22.6532 28.8630 1144.2021
v  -21.9170 28.8630 1143.2509
v  -21.9170 43.8808 1141.0870
v  -21.6613 43.8808 1142.1689
v  -22.6532 43.8808 1140.1357
v  -23.7810 43.8808 1139.4296
v  -25.1646 43.8808 1139.0538
v  -26.6370 43.8808 1139.0538
v  -28.0205 43.8808 1139.4296
v  -29.1484 43.8808 1140.1357
v  -29.8846 43.8808 1141.0870
v  -30.1403 43.8808 1142.1689
v  -29.8846 43.8808 1143.2509
v  -29.1484 43.8808 1144.2021
v  -28.0205 43.8808 1144.9083
v  -26.6370 43.8808 1145.2841
v  -25.1646 43.8808 1145.2841
v  -23.7810 43.8808 1144.9083
v  -22.6532 43.8808 1144.2021
v  -21.9170 43.8808 1143.2509
v  -21.9170 58.8986 1141.0870
v  -21.6613 58.8986 1142.1689
v  -22.6532 58.8986 1140.1357
v  -23.7810 58.8986 1139.4296
v  -25.1646 58.8986 1139.0538
v  -26.6370 58.8986 1139.0538
v  -28.0205 58.8986 1139.4296
v  -29.1484 58.8986 1140.1357
v  -29.8846 58.8986 1141.0870
v  -30.1403 58.8986 1142.1689
v  -29.8846 58.8986 1143.2509
v  -29.1484 58.8986 1144.2021
v  -28.0205 58.8986 1144.9083
v  -26.6370 58.8986 1145.2841
v  -25.1646 58.8986 1145.2841
v  -23.7810 58.8986 1144.9083
v  -22.6532 58.8986 1144.2021
v  -21.9170 58.8986 1143.2509
v  -21.9170 73.9164 1141.0870
v  -21.6613 73.9164 1142.1689
v  -22.6532 73.9164 1140.1357
v  -23.7810 73.9164 1139.4296
v  -25.1646 73.9164 1139.0538
v  -26.6370 73.9164 1139.0538
v  -28.0205 73.9164 1139.4296
v  -29.1484 73.9164 1140.1357
v  -29.8846 73.9164 1141.0870
v  -30.1403 73.9164 1142.1689
v  -29.8846 73.9164 1143.2509
v  -29.1484 73.9164 1144.2021
v  -28.0205 73.9164 1144.9083
v  -26.6370 73.9164 1145.2841
v  -25.1646 73.9164 1145.2841
v  -23.7810 73.9164 1144.9083
v  -22.6532 73.9164 1144.2021
v  -21.9170 73.9164 1143.2509
v  -21.9170 88.9341 1141.0870
v  -21.6613 88.9341 1142.1689
v  -22.6532 88.9341 1140.1357
v  -23.7810 88.9341 1139.4296
v  -25.1646 88.9341 1139.0538
v  -26.6370 88.9341 1139.0538
v  -28.0205 88.9341 1139.4296
v  -29.1484 88.9341 1140.1357
v  -29.8846 88.9341 1141.0870
v  -30.1403 88.9341 1142.1689
v  -29.8846 88.9341 1143.2509
v  -29.1484 88.9341 1144.2021
v  -28.0205 88.9341 1144.9083
v  -26.6370 88.9341 1145.2841
v  -25.1646 88.9341 1145.2841
v  -23.7810 88.9341 1144.9083
v  -22.6532 88.9341 1144.2021
v  -21.9170 88.9341 1143.2509
v  -25.9008 88.9341 1142.1689
# 110 vertices

vn 0.0000 -1.0000 -0.0000
vn 1.0000 -0.0000 0.0000
vn 0.9397 -0.0000 -0.3420
vn 0.9397 0.0000 -0.3420
vn 1.0000 0.0000 0.0000
vn 0.7660 -0.0000 -0.6428
vn 0.5000 -0.0000 -0.8660
vn 0.1736 -0.0000 -0.9848
vn -0.1736 -0.0000 -0.9848
vn -0.1736 0.0000 -0.9848
vn -0.5000 -0.0000 -0.8660
vn -0.5000 0.0000 -0.8660
vn -0.7660 -0.0000 -0.6428
vn -0.7660 0.0000 -0.6428
vn -0.9397 -0.0000 -0.3420
vn -1.0000 -0.0000 -0.0000
vn -1.0000 0.0000 -0.0000
vn -0.9397 -0.0000 0.3420
vn -0.9397 0.0000 0.3420
vn -0.7660 -0.0000 0.6428
vn -0.5000 -0.0000 0.8660
vn -0.1736 -0.0000 0.9848
vn 0.1736 -0.0000 0.9848
vn 0.1736 0.0000 0.9848
vn 0.5000 -0.0000 0.8660
vn 0.5000 0.0000 0.8660
vn 0.7660 -0.0000 0.6428
vn 0.9397 -0.0000 0.3420
vn 0.7660 0.0000 -0.6428
vn 0.5000 0.0000 -0.8660
vn 0.1736 0.0000 -0.9848
vn -0.9397 0.0000 -0.3420
vn -0.7660 0.0000 0.6428
vn -0.5000 0.0000 0.8660
vn -0.1736 0.0000 0.9848
vn 0.7660 0.0000 0.6428
vn 0.9397 0.0000 0.3420
vn 0.0000 1.0000 -0.0000
# 38 vertex normals

vt 0.5000 0.0000 0.0000
vt 0.8611 0.0000 1.0000
vt 0.8056 0.0000 1.0000
vt 0.7500 0.0000 1.0000
vt 0.9722 0.0000 1.0000
vt 0.9167 0.0000 1.0000
vt 0.0833 0.0000 1.0000
vt 0.0278 0.0000 1.0000
vt -0.0278 0.0000 1.0000
vt 0.1944 0.0000 1.0000
vt 0.1389 0.0000 1.0000
vt 0.3056 0.0000 1.0000
vt 0.2500 0.0000 1.0000
vt 0.4167 0.0000 1.0000
vt 0.3611 0.0000 1.0000
vt 0.5278 0.0000 1.0000
vt 0.4722 0.0000 1.0000
vt 0.6389 0.0000 1.0000
vt 0.5833 0.0000 1.0000
vt 0.6944 0.0000 1.0000
vt 0.8056 0.2000 1.0000
vt 0.7500 0.2000 1.0000
vt 0.8611 0.2000 1.0000
vt 0.9167 0.2000 1.0000
vt 0.9722 0.2000 1.0000
vt 0.0278 0.2000 1.0000
vt -0.0278 0.2000 1.0000
vt 0.0833 0.2000 1.0000
vt 0.1389 0.2000 1.0000
vt 0.1944 0.2000 1.0000
vt 0.2500 0.2000 1.0000
vt 0.3056 0.2000 1.0000
vt 0.3611 0.2000 1.0000
vt 0.4167 0.2000 1.0000
vt 0.4722 0.2000 1.0000
vt 0.5278 0.2000 1.0000
vt 0.5833 0.2000 1.0000
vt 0.6389 0.2000 1.0000
vt 0.6944 0.2000 1.0000
vt 0.8056 0.4000 1.0000
vt 0.7500 0.4000 1.0000
vt 0.8611 0.4000 1.0000
vt 0.9167 0.4000 1.0000
vt 0.9722 0.4000 1.0000
vt 0.0278 0.4000 1.0000
vt -0.0278 0.4000 1.0000
vt 0.0833 0.4000 1.0000
vt 0.1389 0.4000 1.0000
vt 0.1944 0.4000 1.0000
vt 0.2500 0.4000 1.0000
vt 0.3056 0.4000 1.0000
vt 0.3611 0.4000 1.0000
vt 0.4167 0.4000 1.0000
vt 0.4722 0.4000 1.0000
vt 0.5278 0.4000 1.0000
vt 0.5833 0.4000 1.0000
vt 0.6389 0.4000 1.0000
vt 0.6944 0.4000 1.0000
vt 0.8056 0.6000 1.0000
vt 0.7500 0.6000 1.0000
vt 0.8611 0.6000 1.0000
vt 0.9167 0.6000 1.0000
vt 0.9722 0.6000 1.0000
vt 0.0278 0.6000 1.0000
vt -0.0278 0.6000 1.0000
vt 0.0833 0.6000 1.0000
vt 0.1389 0.6000 1.0000
vt 0.1944 0.6000 1.0000
vt 0.2500 0.6000 1.0000
vt 0.3056 0.6000 1.0000
vt 0.3611 0.6000 1.0000
vt 0.4167 0.6000 1.0000
vt 0.4722 0.6000 1.0000
vt 0.5278 0.6000 1.0000
vt 0.5833 0.6000 1.0000
vt 0.6389 0.6000 1.0000
vt 0.6944 0.6000 1.0000
vt 0.8056 0.8000 1.0000
vt 0.7500 0.8000 1.0000
vt 0.8611 0.8000 1.0000
vt 0.9167 0.8000 1.0000
vt 0.9722 0.8000 1.0000
vt 0.0278 0.8000 1.0000
vt -0.0278 0.8000 1.0000
vt 0.0833 0.8000 1.0000
vt 0.1389 0.8000 1.0000
vt 0.1944 0.8000 1.0000
vt 0.2500 0.8000 1.0000
vt 0.3056 0.8000 1.0000
vt 0.3611 0.8000 1.0000
vt 0.4167 0.8000 1.0000
vt 0.4722 0.8000 1.0000
vt 0.5278 0.8000 1.0000
vt 0.5833 0.8000 1.0000
vt 0.6389 0.8000 1.0000
vt 0.6944 0.8000 1.0000
vt 0.8056 1.0000 1.0000
vt 0.7500 1.0000 1.0000
vt 0.8611 1.0000 1.0000
vt 0.9167 1.0000 1.0000
vt 0.9722 1.0000 1.0000
vt 0.0278 1.0000 1.0000
vt -0.0278 1.0000 1.0000
vt 0.0833 1.0000 1.0000
vt 0.1389 1.0000 1.0000
vt 0.1944 1.0000 1.0000
vt 0.2500 1.0000 1.0000
vt 0.3056 1.0000 1.0000
vt 0.3611 1.0000 1.0000
vt 0.4167 1.0000 1.0000
vt 0.4722 1.0000 1.0000
vt 0.5278 1.0000 1.0000
vt 0.5833 1.0000 1.0000
vt 0.6389 1.0000 1.0000
vt 0.6944 1.0000 1.0000
vt 0.5000 1.0000 0.0000
vt -0.0197 1.0000 0.8794
# 117 texture coords

g Cylinder019
usemtl 02___Default
s 1
f 1/1/1 2/2/1 3/3/1 4/4/1 
f 1/1/1 5/5/1 6/6/1 2/2/1 
f 1/1/1 7/7/1 8/8/1 5/9/1 
f 1/1/1 9/10/1 10/11/1 7/7/1 
f 1/1/1 11/12/1 12/13/1 9/10/1 
f 1/1/1 13/14/1 14/15/1 11/12/1 
f 1/1/1 15/16/1 16/17/1 13/14/1 
f 1/1/1 17/18/1 18/19/1 15/16/1 
f 1/1/1 4/4/1 19/20/1 17/18/1 
s 8
f 4/4/2 3/3/3 20/21/4 21/22/5 
f 3/3/3 2/2/6 22/23/6 20/21/4 
f 2/2/6 6/6/7 23/24/7 22/23/6 
f 6/6/7 5/5/8 24/25/8 23/24/7 
f 5/9/8 8/8/9 25/26/10 24/27/8 
f 8/8/9 7/7/11 26/28/12 25/26/10 
f 7/7/11 10/11/13 27/29/14 26/28/12 
f 10/11/13 9/10/15 28/30/15 27/29/14 
f 9/10/15 12/13/16 29/31/17 28/30/15 
f 12/13/16 11/12/18 30/32/19 29/31/17 
f 11/12/18 14/15/20 31/33/20 30/32/19 
f 14/15/20 13/14/21 32/34/21 31/33/20 
f 13/14/21 16/17/22 33/35/22 32/34/21 
f 16/17/22 15/16/23 34/36/24 33/35/22 
f 15/16/23 18/19/25 35/37/26 34/36/24 
f 18/19/25 17/18/27 36/38/27 35/37/26 
f 17/18/27 19/20/28 37/39/28 36/38/27 
f 19/20/28 4/4/2 21/22/5 37/39/28 
f 21/22/5 20/21/4 38/40/4 39/41/5 
f 20/21/4 22/23/6 40/42/29 38/40/4 
f 22/23/6 23/24/7 41/43/30 40/42/29 
f 23/24/7 24/25/8 42/44/31 41/43/30 
f 24/27/8 25/26/10 43/45/10 42/46/31 
f 25/26/10 26/28/12 44/47/12 43/45/10 
f 26/28/12 27/29/14 45/48/14 44/47/12 
f 27/29/14 28/30/15 46/49/32 45/48/14 
f 28/30/15 29/31/17 47/50/17 46/49/32 
f 29/31/17 30/32/19 48/51/19 47/50/17 
f 30/32/19 31/33/20 49/52/33 48/51/19 
f 31/33/20 32/34/21 50/53/34 49/52/33 
f 32/34/21 33/35/22 51/54/35 50/53/34 
f 33/35/22 34/36/24 52/55/24 51/54/35 
f 34/36/24 35/37/26 53/56/26 52/55/24 
f 35/37/26 36/38/27 54/57/36 53/56/26 
f 36/38/27 37/39/28 55/58/37 54/57/36 
f 37/39/28 21/22/5 39/41/5 55/58/37 
f 39/41/5 38/40/4 56/59/4 57/60/5 
f 38/40/4 40/42/29 58/61/29 56/59/4 
f 40/42/29 41/43/30 59/62/30 58/61/29 
f 41/43/30 42/44/31 60/63/31 59/62/30 
f 42/46/31 43/45/10 61/64/10 60/65/31 
f 43/45/10 44/47/12 62/66/12 61/64/10 
f 44/47/12 45/48/14 63/67/14 62/66/12 
f 45/48/14 46/49/32 64/68/32 63/67/14 
f 46/49/32 47/50/17 65/69/17 64/68/32 
f 47/50/17 48/51/19 66/70/19 65/69/17 
f 48/51/19 49/52/33 67/71/33 66/70/19 
f 49/52/33 50/53/34 68/72/34 67/71/33 
f 50/53/34 51/54/35 69/73/35 68/72/34 
f 51/54/35 52/55/24 70/74/24 69/73/35 
f 52/55/24 53/56/26 71/75/26 70/74/24 
f 53/56/26 54/57/36 72/76/36 71/75/26 
f 54/57/36 55/58/37 73/77/37 72/76/36 
f 55/58/37 39/41/5 57/60/5 73/77/37 
f 57/60/5 56/59/4 74/78/4 75/79/5 
f 56/59/4 58/61/29 76/80/29 74/78/4 
f 58/61/29 59/62/30 77/81/30 76/80/29 
f 59/62/30 60/63/31 78/82/31 77/81/30 
f 60/65/31 61/64/10 79/83/10 78/84/31 
f 61/64/10 62/66/12 80/85/12 79/83/10 
f 62/66/12 63/67/14 81/86/14 80/85/12 
f 63/67/14 64/68/32 82/87/32 81/86/14 
f 64/68/32 65/69/17 83/88/17 82/87/32 
f 65/69/17 66/70/19 84/89/19 83/88/17 
f 66/70/19 67/71/33 85/90/33 84/89/19 
f 67/71/33 68/72/34 86/91/34 85/90/33 
f 68/72/34 69/73/35 87/92/35 86/91/34 
f 69/73/35 70/74/24 88/93/24 87/92/35 
f 70/74/24 71/75/26 89/94/26 88/93/24 
f 71/75/26 72/76/36 90/95/36 89/94/26 
f 72/76/36 73/77/37 91/96/37 90/95/36 
f 73/77/37 57/60/5 75/79/5 91/96/37 
f 75/79/5 74/78/4 92/97/4 93/98/5 
f 74/78/4 76/80/29 94/99/29 92/97/4 
f 76/80/29 77/81/30 95/100/30 94/99/29 
f 77/81/30 78/82/31 96/101/31 95/100/30 
f 78/84/31 79/83/10 97/102/10 96/103/31 
f 79/83/10 80/85/12 98/104/12 97/102/10 
f 80/85/12 81/86/14 99/105/14 98/104/12 
f 81/86/14 82/87/32 100/106/32 99/105/14 
f 82/87/32 83/88/17 101/107/17 100/106/32 
f 83/88/17 84/89/19 102/108/19 101/107/17 
f 84/89/19 85/90/33 103/109/33 102/108/19 
f 85/90/33 86/91/34 104/110/34 103/109/33 
f 86/91/34 87/92/35 105/111/35 104/110/34 
f 87/92/35 88/93/24 106/112/24 105/111/35 
f 88/93/24 89/94/26 107/113/26 106/112/24 
f 89/94/26 90/95/36 108/114/36 107/113/26 
f 90/95/36 91/96/37 109/115/37 108/114/36 
f 91/96/37 75/79/5 93/98/5 109/115/37 
s 1
f 110/116/38 109/115/38 93/98/38 92/97/38 
f 110/116/38 92/97/38 94/99/38 95/100/38 
f 110/116/38 95/117/38 96/103/38 97/102/38 
f 110/116/38 97/102/38 98/104/38 99/105/38 
f 110/116/38 99/105/38 100/106/38 101/107/38 
f 110/116/38 101/107/38 102/108/38 103/109/38 
f 110/116/38 103/109/38 104/110/38 105/111/38 
f 110/116/38 105/111/38 106/112/38 107/113/38 
f 110/116/38 107/113/38 108/114/38 109/115/38 
# 108 polygons

