# 3ds Max Wavefront OBJ Exporter v0.97b - (c)2007 guruware
# File Created: 04.06.2016 13:41:34

mtllib columnstone1.mtl

#
# object Cylinder017
#

v  -61.4637 9.6170 1142.4316
v  -61.8196 9.6170 1140.7441
v  -61.8149 11.8327 1140.7427
v  -61.4587 11.8327 1142.4316
v  -62.8446 9.6170 1139.2603
v  -62.8407 11.8327 1139.2576
v  -64.4148 9.6170 1138.1588
v  -64.4123 11.8327 1138.1552
v  -66.3410 9.6170 1137.5728
v  -66.3402 11.8327 1137.5686
v  -68.3909 9.6170 1137.5728
v  -68.3917 11.8327 1137.5686
v  -70.3171 9.6170 1138.1588
v  -70.3196 11.8327 1138.1552
v  -71.8873 9.6170 1139.2603
v  -71.8912 11.8327 1139.2576
v  -72.9122 9.6170 1140.7441
v  -72.9169 11.8327 1140.7427
v  -73.2682 9.6170 1142.4316
v  -73.2732 11.8327 1142.4316
v  -72.9122 9.6170 1144.1191
v  -72.9169 11.8327 1144.1206
v  -71.8873 9.6170 1145.6030
v  -71.8912 11.8327 1145.6057
v  -70.3171 9.6170 1146.7045
v  -70.3196 11.8327 1146.7081
v  -68.3909 9.6170 1147.2905
v  -68.3917 11.8327 1147.2947
v  -66.3410 9.6170 1147.2905
v  -66.3402 11.8327 1147.2947
v  -64.4148 9.6170 1146.7045
v  -64.4123 11.8327 1146.7081
v  -62.8446 9.6170 1145.6030
v  -62.8407 11.8327 1145.6057
v  -61.8196 9.6170 1144.1191
v  -61.8149 11.8327 1144.1206
v  -62.4204 13.2857 1140.9270
v  -62.1031 13.2857 1142.4316
v  -63.3343 13.2857 1139.6038
v  -64.7345 13.2857 1138.6217
v  -66.4520 13.2857 1138.0991
v  -68.2798 13.2857 1138.0991
v  -69.9974 13.2857 1138.6217
v  -71.3975 13.2857 1139.6038
v  -72.3114 13.2857 1140.9270
v  -72.6288 13.2857 1142.4316
v  -72.3114 13.2857 1143.9363
v  -71.3975 13.2857 1145.2595
v  -69.9974 13.2857 1146.2416
v  -68.2798 13.2857 1146.7642
v  -66.4520 13.2857 1146.7642
v  -64.7345 13.2857 1146.2417
v  -63.3343 13.2857 1145.2595
v  -62.4204 13.2857 1143.9363
v  -63.2444 14.3771 1141.1776
v  -62.9799 14.3771 1142.4316
v  -64.0061 14.3771 1140.0750
v  -65.1729 14.3771 1139.2565
v  -66.6043 14.3771 1138.8209
v  -68.1276 14.3771 1138.8209
v  -69.5589 14.3771 1139.2565
v  -70.7258 14.3771 1140.0750
v  -71.4874 14.3771 1141.1776
v  -71.7519 14.3771 1142.4316
v  -71.4874 14.3771 1143.6857
v  -70.7258 14.3771 1144.7883
v  -69.5589 14.3771 1145.6068
v  -68.1276 14.3771 1146.0424
v  -66.6043 14.3771 1146.0424
v  -65.1729 14.3771 1145.6068
v  -64.0061 14.3771 1144.7883
v  -63.2444 14.3771 1143.6857
# 72 vertices

vn 1.0000 -0.0046 0.0000
vn 0.9397 -0.0046 -0.3420
vn 0.8823 0.3440 -0.3211
vn 0.9390 0.3440 0.0000
vn 0.7660 -0.0046 -0.6428
vn 0.7193 0.3440 -0.6036
vn 0.5000 -0.0046 -0.8660
vn 0.4695 0.3440 -0.8132
vn 0.1736 -0.0046 -0.9848
vn 0.1630 0.3440 -0.9247
vn -0.1736 -0.0046 -0.9848
vn -0.1630 0.3440 -0.9247
vn -0.5000 -0.0046 -0.8660
vn -0.4695 0.3440 -0.8132
vn -0.7660 -0.0046 -0.6428
vn -0.7193 0.3440 -0.6036
vn -0.9397 -0.0046 -0.3420
vn -0.8823 0.3440 -0.3211
vn -1.0000 -0.0046 0.0000
vn -0.9390 0.3440 0.0000
vn -0.9397 -0.0046 0.3420
vn -0.8823 0.3440 0.3211
vn -0.7660 -0.0046 0.6428
vn -0.7193 0.3440 0.6036
vn -0.5000 -0.0046 0.8660
vn -0.4695 0.3440 0.8132
vn -0.1736 -0.0046 0.9848
vn -0.1630 0.3440 0.9247
vn 0.1736 -0.0046 0.9848
vn 0.1630 0.3440 0.9247
vn 0.5000 -0.0046 0.8660
vn 0.4695 0.3440 0.8132
vn 0.7660 -0.0046 0.6428
vn 0.7193 0.3440 0.6036
vn 0.9397 -0.0046 0.3420
vn 0.8823 0.3440 0.3211
vn 0.6089 0.7616 -0.2216
vn 0.6480 0.7616 0.0000
vn 0.4964 0.7616 -0.4165
vn 0.3240 0.7616 -0.5612
vn 0.1125 0.7616 -0.6382
vn -0.1125 0.7616 -0.6382
vn -0.3240 0.7616 -0.5612
vn -0.4964 0.7616 -0.4165
vn -0.6089 0.7616 -0.2216
vn -0.6480 0.7616 -0.0000
vn -0.6089 0.7616 0.2216
vn -0.4964 0.7616 0.4165
vn -0.3240 0.7616 0.5612
vn -0.1125 0.7616 0.6382
vn 0.1125 0.7616 0.6382
vn 0.3240 0.7616 0.5612
vn 0.4964 0.7616 0.4165
vn 0.6089 0.7616 0.2216
vn 0.2805 0.9544 -0.1021
vn 0.2985 0.9544 0.0000
vn 0.2287 0.9544 -0.1919
vn 0.1493 0.9544 -0.2585
vn 0.0518 0.9544 -0.2940
vn -0.0518 0.9544 -0.2940
vn -0.1493 0.9544 -0.2585
vn -0.2287 0.9544 -0.1919
vn -0.2805 0.9544 -0.1021
vn -0.2985 0.9544 0.0000
vn -0.2805 0.9544 0.1021
vn -0.2287 0.9544 0.1919
vn -0.1493 0.9544 0.2585
vn -0.0518 0.9544 0.2940
vn 0.0518 0.9544 0.2940
vn 0.1493 0.9544 0.2585
vn 0.2287 0.9544 0.1919
vn 0.2805 0.9544 0.1021
vn 0.0000 -1.0000 -0.0000
# 73 vertex normals

vt 0.7500 0.0000 1.0000
vt 0.8056 0.0000 1.0000
vt 0.8056 0.3333 1.0000
vt 0.7500 0.3333 1.0000
vt 0.8611 0.0000 1.0000
vt 0.8611 0.3333 1.0000
vt 0.9167 0.0000 1.0000
vt 0.9167 0.3333 1.0000
vt 0.9722 0.0000 1.0000
vt 0.9722 0.3333 1.0000
vt 1.0278 0.0000 1.0000
vt 1.0278 0.3333 1.0000
vt 0.0278 0.0000 1.0000
vt 0.0833 0.0000 1.0000
vt 0.0833 0.3333 1.0000
vt 0.0278 0.3333 1.0000
vt 0.1389 0.0000 1.0000
vt 0.1389 0.3333 1.0000
vt 0.1944 0.0000 1.0000
vt 0.1944 0.3333 1.0000
vt 0.2500 0.0000 1.0000
vt 0.2500 0.3333 1.0000
vt 0.3056 0.0000 1.0000
vt 0.3056 0.3333 1.0000
vt 0.3611 0.0000 1.0000
vt 0.3611 0.3333 1.0000
vt 0.4167 0.0000 1.0000
vt 0.4167 0.3333 1.0000
vt 0.4722 0.0000 1.0000
vt 0.4722 0.3333 1.0000
vt 0.5278 0.0000 1.0000
vt 0.5278 0.3333 1.0000
vt 0.5833 0.0000 1.0000
vt 0.5833 0.3333 1.0000
vt 0.6389 0.0000 1.0000
vt 0.6389 0.3333 1.0000
vt 0.6944 0.0000 1.0000
vt 0.6944 0.3333 1.0000
vt 0.8056 0.6667 1.0000
vt 0.7500 0.6667 1.0000
vt 0.8611 0.6667 1.0000
vt 0.9167 0.6667 1.0000
vt 0.9722 0.6667 1.0000
vt 1.0278 0.6667 1.0000
vt 0.0833 0.6667 1.0000
vt 0.0278 0.6667 1.0000
vt 0.1389 0.6667 1.0000
vt 0.1944 0.6667 1.0000
vt 0.2500 0.6667 1.0000
vt 0.3056 0.6667 1.0000
vt 0.3611 0.6667 1.0000
vt 0.4167 0.6667 1.0000
vt 0.4722 0.6667 1.0000
vt 0.5278 0.6667 1.0000
vt 0.5833 0.6667 1.0000
vt 0.6389 0.6667 1.0000
vt 0.6944 0.6667 1.0000
vt 0.8056 1.0000 1.0000
vt 0.7500 1.0000 1.0000
vt 0.8611 1.0000 1.0000
vt 0.9167 1.0000 1.0000
vt 0.9722 1.0000 1.0000
vt 1.0278 1.0000 1.0000
vt 0.0833 1.0000 1.0000
vt 0.0278 1.0000 1.0000
vt 0.1389 1.0000 1.0000
vt 0.1944 1.0000 1.0000
vt 0.2500 1.0000 1.0000
vt 0.3056 1.0000 1.0000
vt 0.3611 1.0000 1.0000
vt 0.4167 1.0000 1.0000
vt 0.4722 1.0000 1.0000
vt 0.5278 1.0000 1.0000
vt 0.5833 1.0000 1.0000
vt 0.6389 1.0000 1.0000
vt 0.6944 1.0000 1.0000
vt 0.8214 0.8830 -0.2500
vt 0.9330 0.7500 -0.2500
vt 0.9924 0.5868 -0.2500
vt 0.5000 1.0000 -0.2500
vt 0.9924 0.4132 -0.2500
vt 0.9330 0.2500 -0.2500
vt 0.6710 0.0302 -0.2500
vt 0.8214 0.1170 -0.2500
vt 0.5000 0.0000 -0.2500
vt 0.3290 0.0302 -0.2500
vt 0.0670 0.2500 -0.2500
vt 0.1786 0.1170 -0.2500
vt 0.0076 0.4132 -0.2500
vt 0.0076 0.5868 -0.2500
vt 0.1786 0.8830 -0.2500
vt 0.0670 0.7500 -0.2500
vt 0.3290 0.9698 -0.2500
vt 0.6710 0.9698 -0.2500
vt 0.3290 0.9698 0.2500
vt 0.1786 0.8830 0.2500
vt 0.0670 0.7500 0.2500
vt 0.6710 0.9698 0.2500
vt 0.0076 0.5868 0.2500
vt 0.0076 0.4132 0.2500
vt 0.1786 0.1170 0.2500
vt 0.0670 0.2500 0.2500
vt 0.3290 0.0302 0.2500
vt 0.5000 0.0000 0.2500
vt 0.8214 0.1170 0.2500
vt 0.6710 0.0302 0.2500
vt 0.9330 0.2500 0.2500
vt 0.9924 0.4132 0.2500
vt 0.9330 0.7500 0.2500
vt 0.9924 0.5868 0.2500
vt 0.8214 0.8830 0.2500
vt 0.5000 1.0000 0.2500
# 112 texture coords

g Cylinder017
usemtl ________
s 1
f 1/1/1 2/2/2 3/3/3 4/4/4 
f 2/2/2 5/5/5 6/6/6 3/3/3 
f 5/5/5 7/7/7 8/8/8 6/6/6 
f 7/7/7 9/9/9 10/10/10 8/8/8 
f 9/9/9 11/11/11 12/12/12 10/10/10 
f 11/13/11 13/14/13 14/15/14 12/16/12 
f 13/14/13 15/17/15 16/18/16 14/15/14 
f 15/17/15 17/19/17 18/20/18 16/18/16 
f 17/19/17 19/21/19 20/22/20 18/20/18 
f 19/21/19 21/23/21 22/24/22 20/22/20 
f 21/23/21 23/25/23 24/26/24 22/24/22 
f 23/25/23 25/27/25 26/28/26 24/26/24 
f 25/27/25 27/29/27 28/30/28 26/28/26 
f 27/29/27 29/31/29 30/32/30 28/30/28 
f 29/31/29 31/33/31 32/34/32 30/32/30 
f 31/33/31 33/35/33 34/36/34 32/34/32 
f 33/35/33 35/37/35 36/38/36 34/36/34 
f 35/37/35 1/1/1 4/4/4 36/38/36 
f 4/4/4 3/3/3 37/39/37 38/40/38 
f 3/3/3 6/6/6 39/41/39 37/39/37 
f 6/6/6 8/8/8 40/42/40 39/41/39 
f 8/8/8 10/10/10 41/43/41 40/42/40 
f 10/10/10 12/12/12 42/44/42 41/43/41 
f 12/16/12 14/15/14 43/45/43 42/46/42 
f 14/15/14 16/18/16 44/47/44 43/45/43 
f 16/18/16 18/20/18 45/48/45 44/47/44 
f 18/20/18 20/22/20 46/49/46 45/48/45 
f 20/22/20 22/24/22 47/50/47 46/49/46 
f 22/24/22 24/26/24 48/51/48 47/50/47 
f 24/26/24 26/28/26 49/52/49 48/51/48 
f 26/28/26 28/30/28 50/53/50 49/52/49 
f 28/30/28 30/32/30 51/54/51 50/53/50 
f 30/32/30 32/34/32 52/55/52 51/54/51 
f 32/34/32 34/36/34 53/56/53 52/55/52 
f 34/36/34 36/38/36 54/57/54 53/56/53 
f 36/38/36 4/4/4 38/40/38 54/57/54 
f 38/40/38 37/39/37 55/58/55 56/59/56 
f 37/39/37 39/41/39 57/60/57 55/58/55 
f 39/41/39 40/42/40 58/61/58 57/60/57 
f 40/42/40 41/43/41 59/62/59 58/61/58 
f 41/43/41 42/44/42 60/63/60 59/62/59 
f 42/46/42 43/45/43 61/64/61 60/65/60 
f 43/45/43 44/47/44 62/66/62 61/64/61 
f 44/47/44 45/48/45 63/67/63 62/66/62 
f 45/48/45 46/49/46 64/68/64 63/67/63 
f 46/49/46 47/50/47 65/69/65 64/68/64 
f 47/50/47 48/51/48 66/70/66 65/69/65 
f 48/51/48 49/52/49 67/71/67 66/70/66 
f 49/52/49 50/53/50 68/72/68 67/71/67 
f 50/53/50 51/54/51 69/73/69 68/72/68 
f 51/54/51 52/55/52 70/74/70 69/73/69 
f 52/55/52 53/56/53 71/75/71 70/74/70 
f 53/56/53 54/57/54 72/76/72 71/75/71 
f 54/57/54 38/40/38 56/59/56 72/76/72 
s 2
f 33/77/73 31/78/73 29/79/73 1/80/73 
f 29/79/73 27/81/73 25/82/73 21/83/73 
f 25/82/73 23/84/73 21/83/73 
f 21/83/73 19/85/73 17/86/73 13/87/73 
f 17/86/73 15/88/73 13/87/73 
f 13/87/73 11/89/73 9/90/73 5/91/73 
f 9/90/73 7/92/73 5/91/73 
f 21/83/73 13/87/73 5/91/73 29/79/73 
f 5/91/73 2/93/73 1/80/73 29/79/73 
f 35/94/73 33/77/73 1/80/73 
s 1
f 55/95/55 57/96/57 58/97/58 72/98/72 
f 58/97/58 59/99/59 60/100/60 62/101/62 
f 60/100/60 61/102/61 62/101/62 
f 62/101/62 63/103/63 64/104/64 66/105/66 
f 64/104/64 65/106/65 66/105/66 
f 66/105/66 67/107/67 68/108/68 70/109/70 
f 68/108/68 69/110/69 70/109/70 
f 62/101/62 66/105/66 70/109/70 58/97/58 
f 70/109/70 71/111/71 72/98/72 58/97/58 
f 56/112/56 55/95/55 72/98/72 
# 66 polygons - 8 triangles

