# 3ds Max Wavefront OBJ Exporter v0.97b - (c)2007 guruware
# File Created: 04.06.2016 13:46:04

mtllib doorwall4.mtl

#
# object Box053
#

v  64.0406 8.6377 1110.1146
v  64.0406 8.6377 1106.0192
v  42.0180 8.6377 1106.0192
v  42.0180 8.6377 1110.1146
v  64.0406 45.8096 1110.1146
v  42.0180 45.8096 1110.1146
v  42.0180 45.8096 1106.0192
v  64.0406 45.8096 1106.0192
# 8 vertices

vn 0.0000 -1.0000 0.0000
vn 0.0000 1.0000 -0.0000
vn 0.0000 0.0000 1.0000
vn -1.0000 0.0000 -0.0000
vn 0.0000 -0.0000 -1.0000
vn 1.0000 0.0000 -0.0000
# 6 vertex normals

vt 1.0000 0.0000 0.0000
vt 1.0000 1.0000 0.0000
vt 0.0000 1.0000 0.0000
vt 0.0000 0.0000 0.0000
# 4 texture coords

g Box053
usemtl ____________
s 2
f 4/4/1 3/3/1 2/2/1 1/1/1 
s 4
f 8/3/2 7/2/2 6/1/2 5/4/2 
s 8
f 5/3/3 6/2/3 4/1/3 1/4/3 
s 16
f 6/3/4 7/2/4 3/1/4 4/4/4 
s 32
f 7/3/5 8/2/5 2/1/5 3/4/5 
s 64
f 8/3/6 5/2/6 1/1/6 2/4/6 
# 6 polygons

