# 3ds Max Wavefront OBJ Exporter v0.97b - (c)2007 guruware
# File Created: 04.06.2016 13:37:59

mtllib sidedoor1.mtl

#
# object Box068
#

v  661.5754 106.9054 146.0878
v  661.5754 106.9054 134.1683
v  663.4694 106.9054 134.1683
v  663.4694 106.9054 146.0878
v  665.3634 106.9054 134.1683
v  665.3634 106.9054 146.0878
v  661.5754 106.9054 122.2488
v  663.4694 106.9054 122.2488
v  665.3634 106.9054 122.2488
v  661.5754 106.9054 110.3293
v  663.4694 106.9054 110.3293
v  665.3634 106.9054 110.3293
v  661.5754 106.9054 98.4099
v  663.4694 106.9054 98.4099
v  665.3634 106.9054 98.4099
v  661.5754 106.9054 86.4904
v  663.4694 106.9054 86.4904
v  665.3634 106.9054 86.4904
v  661.5754 110.0730 148.5331
v  663.5046 110.6308 148.3897
v  663.5046 110.6308 135.3710
v  661.5754 110.0730 135.6355
v  665.3634 110.0730 148.5331
v  665.3634 110.0730 135.6355
v  663.5046 110.6308 122.6497
v  661.5754 110.0730 122.7379
v  665.3634 110.0730 122.7379
v  663.5046 110.6308 109.9285
v  661.5754 110.0730 109.8403
v  665.3634 110.0730 109.8403
v  663.5046 110.6308 97.2072
v  661.5754 110.0730 96.9427
v  665.3634 110.0730 96.9427
v  663.5046 110.6308 84.1884
v  661.5754 110.0730 84.0451
v  665.3634 110.0730 84.0451
v  663.4694 107.2665 146.4812
v  661.5754 107.2665 146.4812
v  665.3634 107.2665 146.4812
v  663.4694 107.6016 147.6998
v  661.5754 107.6016 147.6998
v  665.3634 107.6016 147.6998
v  663.4694 108.8127 148.5411
v  661.1367 108.8127 148.5411
v  665.8021 108.8127 148.5411
v  665.3634 107.2665 134.4044
v  665.3634 107.2665 122.3275
v  665.3634 107.2665 110.2507
v  665.3634 107.2665 98.1738
v  665.3634 107.2665 86.0970
v  665.3634 107.6016 135.1355
v  665.3634 107.6016 122.5712
v  665.3634 107.6016 110.0069
v  665.3634 107.6016 97.4427
v  665.3634 107.6016 84.8784
v  665.8021 108.8127 135.6403
v  665.8021 108.8127 122.7395
v  665.8021 108.8127 109.8387
v  665.8021 108.8127 96.9379
v  665.8021 108.8127 84.0371
v  663.4694 107.2665 86.0970
v  661.5754 107.2665 86.0970
v  663.4694 107.6016 84.8784
v  661.5754 107.6016 84.8784
v  663.4694 108.8127 84.0371
v  661.1367 108.8127 84.0371
v  661.5754 107.2665 98.1738
v  661.5754 107.2665 110.2507
v  661.5754 107.2665 122.3275
v  661.5754 107.2665 134.4044
v  661.5754 107.6016 97.4427
v  661.5754 107.6016 110.0069
v  661.5754 107.6016 122.5712
v  661.5754 107.6016 135.1355
v  661.1367 108.8127 96.9379
v  661.1367 108.8127 109.8387
v  661.1367 108.8127 122.7395
v  661.1367 108.8127 135.6403
# 78 vertices

vn 0.0000 -1.0000 -0.0000
vn -0.2778 0.9607 -0.0000
vn 0.0053 1.0000 -0.0000
vn 0.0050 1.0000 -0.0000
vn 0.2874 0.9578 -0.0000
vn 0.0000 -0.7367 0.6762
vn 0.0000 -0.8749 0.4842
vn 0.0000 -0.8162 0.5778
vn 0.0000 -0.7982 0.6024
vn -0.0084 -0.2658 0.9640
vn 0.0196 -0.2885 0.9573
vn 0.0000 -0.3014 0.9535
vn -0.0144 0.0683 0.9976
vn 0.0803 -0.0216 0.9965
vn -0.0207 0.0375 0.9991
vn 1.0000 0.0000 -0.0000
vn 0.9849 -0.1729 -0.0000
vn 0.9525 -0.3046 -0.0000
vn 1.0000 -0.0063 -0.0000
vn 0.9973 0.0730 -0.0000
vn 0.9444 0.3287 -0.0000
vn 0.0000 -0.7367 -0.6762
vn 0.0000 -0.8749 -0.4842
vn 0.0000 -0.8162 -0.5778
vn 0.0000 -0.7982 -0.6024
vn 0.0085 -0.2661 -0.9639
vn -0.0199 -0.2882 -0.9574
vn 0.0000 -0.3014 -0.9535
vn 0.0125 0.0670 -0.9977
vn -0.0837 -0.0228 -0.9962
vn 0.0200 0.0365 -0.9991
vn -1.0000 0.0000 -0.0000
vn -0.9849 -0.1729 -0.0000
vn -0.9525 -0.3046 -0.0000
vn -1.0000 -0.0063 -0.0000
vn -0.9973 0.0730 -0.0000
vn -0.9444 0.3287 -0.0000
# 37 vertex normals

vt 1.0000 0.0000 0.0000
vt 1.0000 0.2000 0.0000
vt 0.5000 0.2000 0.0000
vt 0.5000 0.0000 0.0000
vt 0.0000 0.2000 0.0000
vt 0.0000 0.0000 0.0000
vt 1.0000 0.4000 0.0000
vt 0.5000 0.4000 0.0000
vt 0.0000 0.4000 0.0000
vt 1.0000 0.6000 0.0000
vt 0.5000 0.6000 0.0000
vt 0.0000 0.6000 0.0000
vt 1.0000 0.8000 0.0000
vt 0.5000 0.8000 0.0000
vt 0.0000 0.8000 0.0000
vt 1.0000 1.0000 0.0000
vt 0.5000 1.0000 0.0000
vt 0.0000 1.0000 0.0000
vt 0.5000 0.2500 0.0000
vt 0.0000 0.2500 0.0000
vt 1.0000 0.2500 0.0000
vt 0.5000 0.5000 0.0000
vt 0.0000 0.5000 0.0000
vt 1.0000 0.5000 0.0000
vt 0.5000 0.7500 0.0000
vt 0.0000 0.7500 0.0000
vt 1.0000 0.7500 0.0000
vt 0.2000 0.0000 0.0000
vt 0.2000 0.2500 0.0000
vt 0.4000 0.0000 0.0000
vt 0.4000 0.2500 0.0000
vt 0.6000 0.0000 0.0000
vt 0.6000 0.2500 0.0000
vt 0.8000 0.0000 0.0000
vt 0.8000 0.2500 0.0000
vt 0.2000 0.5000 0.0000
vt 0.4000 0.5000 0.0000
vt 0.6000 0.5000 0.0000
vt 0.8000 0.5000 0.0000
vt 0.2000 0.7500 0.0000
vt 0.4000 0.7500 0.0000
vt 0.6000 0.7500 0.0000
vt 0.8000 0.7500 0.0000
vt 0.2000 1.0000 0.0000
vt 0.4000 1.0000 0.0000
vt 0.6000 1.0000 0.0000
vt 0.8000 1.0000 0.0000
# 47 texture coords

g Box068
usemtl ____________
s 2
f 1/1/1 2/2/1 3/3/1 4/4/1 
f 4/4/1 3/3/1 5/5/1 6/6/1 
f 2/2/1 7/7/1 8/8/1 3/3/1 
f 3/3/1 8/8/1 9/9/1 5/5/1 
f 7/7/1 10/10/1 11/11/1 8/8/1 
f 8/8/1 11/11/1 12/12/1 9/9/1 
f 10/10/1 13/13/1 14/14/1 11/11/1 
f 11/11/1 14/14/1 15/15/1 12/12/1 
f 13/13/1 16/16/1 17/17/1 14/14/1 
f 14/14/1 17/17/1 18/18/1 15/15/1 
s 4
f 19/6/2 20/4/3 21/3/4 22/5/2 
f 20/4/3 23/1/5 24/2/5 21/3/4 
f 22/5/2 21/3/4 25/8/4 26/9/2 
f 21/3/4 24/2/5 27/7/5 25/8/4 
f 26/9/2 25/8/4 28/11/4 29/12/2 
f 25/8/4 27/7/5 30/10/5 28/11/4 
f 29/12/2 28/11/4 31/14/4 32/15/2 
f 28/11/4 30/10/5 33/13/5 31/14/4 
f 32/15/2 31/14/4 34/17/3 35/18/2 
f 31/14/4 33/13/5 36/16/5 34/17/3 
s 8
f 1/6/6 4/4/6 37/19/7 38/20/7 
f 4/4/6 6/1/6 39/21/7 37/19/7 
f 38/20/7 37/19/7 40/22/8 41/23/9 
f 37/19/7 39/21/7 42/24/9 40/22/8 
f 41/23/9 40/22/8 43/25/10 44/26/11 
f 40/22/8 42/24/9 45/27/12 43/25/10 
f 44/26/11 43/25/10 20/17/13 19/18/14 
f 43/25/10 45/27/12 23/16/15 20/17/13 
s 16
f 6/6/16 5/28/16 46/29/16 39/20/16 
f 5/28/16 9/30/16 47/31/16 46/29/16 
f 9/30/16 12/32/16 48/33/16 47/31/16 
f 12/32/16 15/34/16 49/35/16 48/33/16 
f 15/34/16 18/1/16 50/21/16 49/35/16 
f 39/20/16 46/29/16 51/36/17 42/23/18 
f 46/29/16 47/31/16 52/37/17 51/36/17 
f 47/31/16 48/33/16 53/38/17 52/37/17 
f 48/33/16 49/35/16 54/39/17 53/38/17 
f 49/35/16 50/21/16 55/24/18 54/39/17 
f 42/23/18 51/36/17 56/40/19 45/26/20 
f 51/36/17 52/37/17 57/41/19 56/40/19 
f 52/37/17 53/38/17 58/42/19 57/41/19 
f 53/38/17 54/39/17 59/43/19 58/42/19 
f 54/39/17 55/24/18 60/27/20 59/43/19 
f 45/26/20 56/40/19 24/44/21 23/18/21 
f 56/40/19 57/41/19 27/45/21 24/44/21 
f 57/41/19 58/42/19 30/46/21 27/45/21 
f 58/42/19 59/43/19 33/47/21 30/46/21 
f 59/43/19 60/27/20 36/16/21 33/47/21 
s 32
f 18/6/22 17/4/22 61/19/23 50/20/23 
f 17/4/22 16/1/22 62/21/23 61/19/23 
f 50/20/23 61/19/23 63/22/24 55/23/25 
f 61/19/23 62/21/23 64/24/25 63/22/24 
f 55/23/25 63/22/24 65/25/26 60/26/27 
f 63/22/24 64/24/25 66/27/28 65/25/26 
f 60/26/27 65/25/26 34/17/29 36/18/30 
f 65/25/26 66/27/28 35/16/31 34/17/29 
s 64
f 16/6/32 13/28/32 67/29/32 62/20/32 
f 13/28/32 10/30/32 68/31/32 67/29/32 
f 10/30/32 7/32/32 69/33/32 68/31/32 
f 7/32/32 2/34/32 70/35/32 69/33/32 
f 2/34/32 1/1/32 38/21/32 70/35/32 
f 62/20/32 67/29/32 71/36/33 64/23/34 
f 67/29/32 68/31/32 72/37/33 71/36/33 
f 68/31/32 69/33/32 73/38/33 72/37/33 
f 69/33/32 70/35/32 74/39/33 73/38/33 
f 70/35/32 38/21/32 41/24/34 74/39/33 
f 64/23/34 71/36/33 75/40/35 66/26/36 
f 71/36/33 72/37/33 76/41/35 75/40/35 
f 72/37/33 73/38/33 77/42/35 76/41/35 
f 73/38/33 74/39/33 78/43/35 77/42/35 
f 74/39/33 41/24/34 44/27/36 78/43/35 
f 66/26/36 75/40/35 32/44/37 35/18/37 
f 75/40/35 76/41/35 29/45/37 32/44/37 
f 76/41/35 77/42/35 26/46/37 29/45/37 
f 77/42/35 78/43/35 22/47/37 26/46/37 
f 78/43/35 44/27/36 19/16/37 22/47/37 
# 76 polygons

