# 3ds Max Wavefront OBJ Exporter v0.97b - (c)2007 guruware
# File Created: 04.06.2016 13:38:37

mtllib sidedoor6.mtl

#
# object Box071
#

v  680.2294 82.6169 146.2084
v  680.2294 82.6169 140.4898
v  646.8803 82.6169 140.4898
v  646.8803 82.6169 146.2084
v  680.2294 82.6169 134.8230
v  646.8803 82.6169 134.8230
v  680.2294 82.6169 125.3023
v  646.8803 82.6169 125.3023
v  680.2294 82.6169 115.7816
v  646.8803 82.6169 115.7817
v  680.2294 3.3475 146.2084
v  680.2294 3.3475 140.4898
v  680.2294 11.2744 140.4898
v  680.2294 11.2744 146.2084
v  680.2294 3.3475 134.8230
v  680.2294 11.2744 134.8230
v  680.2294 19.2014 140.4898
v  680.2294 19.2014 146.2084
v  680.2294 19.2014 134.8230
v  680.2294 27.1283 140.4898
v  680.2294 27.1283 146.2084
v  680.2294 27.1283 134.8230
v  680.2294 43.3711 140.4898
v  680.2294 43.3711 146.2084
v  680.2294 43.3711 134.8230
v  680.2294 50.0254 140.4898
v  680.2294 50.0254 146.2084
v  680.2294 50.0254 134.8230
v  680.2294 56.6797 140.4898
v  680.2294 56.6796 146.2084
v  680.2294 56.6797 134.8230
v  680.2294 65.9687 140.5922
v  680.2294 63.3339 146.2084
v  680.2294 63.8926 134.8230
v  680.2294 65.9552 127.7482
v  680.2294 71.7834 125.3023
v  680.2293 69.6203 115.7816
v  680.2294 72.9955 115.7816
v  680.2294 69.9882 140.4898
v  680.2294 69.9882 146.2084
v  680.2294 72.9627 134.8230
v  680.2294 74.2001 125.3023
v  680.2294 75.4121 115.7816
v  680.2294 76.6425 140.4898
v  680.2294 76.6425 146.2084
v  680.2294 76.6425 134.8230
v  680.2294 77.9227 125.4510
v  680.2294 77.8438 115.7816
v  680.2294 79.9123 115.7816
v  646.8803 3.3475 134.8230
v  646.8803 3.3475 140.4898
v  646.8803 11.2744 140.4898
v  646.8803 11.2744 134.8230
v  646.8803 3.3475 146.2084
v  646.8803 11.2744 146.2084
v  646.8803 19.2014 140.4898
v  646.8803 19.2014 134.8230
v  646.8803 19.2014 146.2084
v  646.8803 27.1283 140.4898
v  646.8803 27.1283 134.8230
v  646.8803 27.1283 146.2084
v  646.8803 43.3710 140.4898
v  646.8803 43.3710 134.8230
v  646.8803 43.3710 146.2084
v  646.8803 50.0253 140.4898
v  646.8803 50.0253 134.8230
v  646.8803 50.0253 146.2084
v  646.8803 56.6796 140.4898
v  646.8803 56.6796 134.8230
v  646.8803 56.6796 146.2084
v  646.8802 69.6202 115.7817
v  646.8802 65.9552 127.7482
v  646.8802 71.7834 125.3023
v  646.8802 72.9954 115.7817
v  646.8803 63.8926 134.8230
v  646.8803 65.9686 140.5922
v  646.8803 63.3339 146.2084
v  646.8803 74.2000 125.3023
v  646.8802 75.4120 115.7817
v  646.8803 72.9627 134.8230
v  646.8803 69.9882 140.4898
v  646.8803 69.9882 146.2084
v  646.8803 77.9226 125.4510
v  646.8803 77.8438 115.7817
v  646.8803 76.6424 134.8230
v  646.8803 76.6424 140.4898
v  646.8803 76.6424 146.2084
v  646.8803 79.9430 115.7817
v  680.2294 82.6169 85.3549
v  646.8803 82.6169 85.3549
v  646.8803 82.6169 91.0735
v  680.2294 82.6169 91.0735
v  646.8803 82.6169 96.7403
v  680.2294 82.6169 96.7403
v  646.8803 82.6169 106.2610
v  680.2294 82.6169 106.2610
v  680.2294 3.3475 85.3549
v  680.2294 11.2744 85.3549
v  680.2294 11.2744 91.0735
v  680.2294 3.3475 91.0735
v  680.2294 11.2744 96.7403
v  680.2294 3.3475 96.7403
v  680.2294 19.2014 85.3549
v  680.2294 19.2014 91.0735
v  680.2294 19.2014 96.7403
v  680.2294 27.1283 85.3549
v  680.2294 27.1283 91.0735
v  680.2294 27.1283 96.7403
v  680.2294 43.3711 85.3549
v  680.2294 43.3711 91.0735
v  680.2294 43.3711 96.7403
v  680.2294 50.0254 85.3549
v  680.2294 50.0254 91.0735
v  680.2294 50.0254 96.7403
v  680.2294 56.6796 85.3549
v  680.2294 56.6797 91.0735
v  680.2294 56.6797 96.7403
v  680.2294 63.3339 85.3549
v  680.2294 65.9687 90.9711
v  680.2294 63.8926 96.7403
v  680.2294 71.7834 106.2610
v  680.2293 65.9552 103.8151
v  680.2294 69.9882 85.3549
v  680.2294 69.9882 91.0735
v  680.2294 72.9627 96.7403
v  680.2294 74.2001 106.2610
v  680.2294 76.6425 85.3549
v  680.2294 76.6425 91.0735
v  680.2294 76.6425 96.7403
v  680.2294 77.9227 106.1123
v  646.8803 3.3475 96.7403
v  646.8803 11.2744 96.7403
v  646.8803 11.2744 91.0735
v  646.8803 3.3475 91.0735
v  646.8803 11.2744 85.3549
v  646.8803 3.3475 85.3549
v  646.8803 19.2014 96.7403
v  646.8803 19.2014 91.0735
v  646.8803 19.2014 85.3549
v  646.8803 27.1283 96.7403
v  646.8803 27.1283 91.0735
v  646.8803 27.1283 85.3549
v  646.8802 43.3710 96.7403
v  646.8802 43.3710 91.0735
v  646.8802 43.3710 85.3549
v  646.8802 50.0253 96.7403
v  646.8802 50.0253 91.0735
v  646.8802 50.0253 85.3549
v  646.8802 56.6796 96.7403
v  646.8802 56.6796 91.0735
v  646.8802 56.6796 85.3549
v  646.8802 71.7834 106.2610
v  646.8802 65.9552 103.8151
v  646.8803 63.8926 96.7403
v  646.8803 65.9686 90.9711
v  646.8803 63.3339 85.3549
v  646.8802 74.2000 106.2610
v  646.8803 72.9627 96.7403
v  646.8803 69.9882 91.0735
v  646.8803 69.9882 85.3549
v  646.8803 77.9226 106.1123
v  646.8803 76.6424 96.7403
v  646.8803 76.6424 91.0735
v  646.8803 76.6424 85.3549
# 164 vertices

vn 0.0000 1.0000 0.0000
vn 0.0000 1.0000 -0.0000
vn 1.0000 -0.0000 -0.0000
vn 1.0000 0.0000 -0.0000
vn 1.0000 -0.0001 -0.0000
vn 0.3830 0.9228 0.0414
vn 0.3829 0.9229 0.0414
vn -1.0000 0.0000 0.0000
vn -1.0000 -0.0000 0.0000
vn -1.0000 0.0001 0.0000
vn 0.0000 0.0000 1.0000
vn 0.0000 -0.0000 1.0000
vn -0.0000 1.0000 -0.0000
vn 1.0000 -0.0000 0.0000
vn 0.3830 0.9228 -0.0414
vn 0.3829 0.9229 -0.0414
vn -1.0000 -0.0000 -0.0000
vn -1.0000 0.0000 -0.0000
vn -1.0000 0.0001 -0.0000
vn -0.0000 0.0000 -1.0000
vn -0.0000 -0.0000 -1.0000
# 21 vertex normals

vt 0.1172 0.0000 -24.3221
vt 0.2174 0.0470 -24.3221
vt 0.1002 0.2969 -24.3221
vt 0.0000 0.2499 24.3221
vt 0.3167 0.0935 -24.3221
vt 0.1995 0.3435 -24.3221
vt 0.4835 0.1717 -24.3221
vt 0.3663 0.4217 -24.3221
vt 0.6503 0.2499 24.3221
vt 0.5331 0.4999 -24.3221
vt 0.0000 0.7246 -15.0776
vt 0.1102 0.7147 -15.0776
vt 0.1114 0.7278 -15.0776
vt 0.0012 0.7376 -15.0776
vt 0.2195 0.7050 -15.0776
vt 0.2206 0.7180 -15.0776
vt 0.1126 0.7408 -15.0776
vt 0.0023 0.7506 -15.0776
vt 0.2218 0.7310 -15.0776
vt 0.1137 0.7538 -15.0776
vt 0.0035 0.7637 -15.0776
vt 0.2230 0.7440 -15.0776
vt 0.1161 0.7805 -15.0776
vt 0.0059 0.7903 15.0776
vt 0.2253 0.7707 -15.0776
vt 0.1171 0.7914 -15.0776
vt 0.0069 0.8013 -15.0776
vt 0.2263 0.7816 -15.0776
vt 0.1181 0.8023 -15.0776
vt 0.0078 0.8122 -15.0776
vt 0.2273 0.7925 -15.0776
vt 0.0003 0.8647 -26.8469
vt 0.1089 0.8808 -26.8469
vt 0.0002 0.8756 -26.8469
vt 0.2284 0.8044 -15.0776
vt 0.1175 0.8178 -15.0776
vt 0.3650 0.7955 -15.0776
vt 0.4130 0.8009 -15.0776
vt 0.5961 0.7808 -15.0776
vt 0.5966 0.7864 -15.0776
vt 0.1108 0.8875 -26.8469
vt 0.0002 0.8866 -26.8469
vt 0.2205 0.8932 -26.8469
vt 0.4134 0.8048 -15.0776
vt 0.2297 0.8193 -15.0776
vt 0.5970 0.7903 15.0776
vt 0.1108 0.8984 -26.8469
vt 0.0001 0.8976 -26.8469
vt 0.2204 0.8993 -26.8469
vt 0.4110 0.8112 -15.0776
vt 0.5974 0.7943 -15.0776
vt 0.1107 0.9083 -26.8469
vt 0.0000 0.9074 26.8469
vt 0.2204 0.9091 -26.8469
vt 0.4017 0.9028 -26.8469
vt 0.4046 0.9105 -26.8469
vt 0.5977 0.7977 -15.0776
vt 0.2194 0.6596 -15.0845
vt 0.1102 0.6498 -15.0845
vt 0.1114 0.6368 -15.0845
vt 0.2206 0.6466 -15.0845
vt 0.0000 0.6399 -15.0845
vt 0.0012 0.6269 -15.0845
vt 0.1126 0.6238 -15.0845
vt 0.2218 0.6336 -15.0845
vt 0.0023 0.6139 -15.0845
vt 0.1137 0.6107 -15.0845
vt 0.2229 0.6205 -15.0845
vt 0.0035 0.6009 -15.0845
vt 0.1161 0.5841 -15.0845
vt 0.2253 0.5939 -15.0845
vt 0.0059 0.5742 15.0845
vt 0.1171 0.5731 -15.0845
vt 0.2263 0.5829 -15.0845
vt 0.0069 0.5633 -15.0845
vt 0.1181 0.5622 -15.0845
vt 0.2273 0.5720 -15.0845
vt 0.0079 0.5523 -15.0845
vt 0.5962 0.5837 -15.0845
vt 0.3650 0.5690 -15.0845
vt 0.4130 0.5637 -15.0845
vt 0.5967 0.5782 -15.0845
vt 0.2284 0.5602 -15.0845
vt 0.1175 0.5468 -15.0845
vt 0.0000 1.0000 -27.0506
vt 0.0003 0.9890 -27.0506
vt 0.1091 0.9877 -27.0506
vt 0.4134 0.5597 -15.0845
vt 0.5970 0.5742 15.0845
vt 0.2297 0.5453 -15.0845
vt 0.1112 0.9811 -27.0506
vt 0.2210 0.9792 -27.0506
vt 0.0006 0.9781 27.0506
vt 0.4111 0.5533 -15.0845
vt 0.5974 0.5702 -15.0845
vt 0.2211 0.9732 -27.0506
vt 0.4025 0.9761 -27.0506
vt 0.1115 0.9701 -27.0506
vt 0.0009 0.9671 -27.0506
vt 0.4056 0.9685 -27.0506
vt 0.5898 0.9737 -27.0506
vt 0.5896 0.9781 27.0506
vt 0.2214 0.9633 -27.0506
vt 0.1118 0.9603 -27.0506
vt 0.0012 0.9572 -27.0506
vt 0.9943 0.1273 -13.4570
vt 0.7255 0.1903 -13.4570
vt 0.7225 0.1775 -13.4570
vt 0.9913 0.1145 -13.4570
vt 0.7195 0.1648 -13.4570
vt 0.9883 0.1018 -13.4570
vt 0.7165 0.1521 -13.4570
vt 0.9853 0.0891 -13.4570
vt 0.7104 0.1260 -13.4570
vt 0.9792 0.0630 13.4570
vt 0.7079 0.1153 -13.4570
vt 0.9767 0.0523 -13.4570
vt 0.7054 0.1046 -13.4570
vt 0.9742 0.0416 -13.4570
vt 0.7029 0.0940 -13.4570
vt 0.9717 0.0310 -13.4570
vt 0.7004 0.0833 -13.4570
vt 0.9692 0.0203 -13.4570
vt 0.6979 0.0726 -13.4570
vt 0.9667 0.0096 -13.4570
vt 0.6957 0.0630 13.4570
vt 0.9644 0.0000 -13.4570
vt 0.5887 0.9074 26.8469
vt 0.5887 0.9119 -26.8469
vt 0.5977 0.5667 -15.0845
# 130 texture coords

g Box071
usemtl ________
s 4
f 1/1/1 2/2/1 3/3/1 4/4/1 
f 2/2/1 5/5/2 6/6/2 3/3/1 
f 5/5/2 7/7/2 8/8/2 6/6/2 
f 7/7/2 9/9/2 10/10/2 8/8/2 
s 8
f 11/11/3 12/12/3 13/13/3 14/14/4 
f 12/12/3 15/15/3 16/16/3 13/13/3 
f 14/14/4 13/13/3 17/17/4 18/18/4 
f 13/13/3 16/16/3 19/19/4 17/17/4 
f 18/18/4 17/17/4 20/20/4 21/21/4 
f 17/17/4 19/19/4 22/22/4 20/20/4 
f 21/21/4 20/20/4 23/23/4 24/24/4 
f 20/20/4 22/22/4 25/25/4 23/23/4 
f 24/24/4 23/23/4 26/26/3 27/27/3 
f 23/23/4 25/25/4 28/28/3 26/26/3 
f 27/27/3 26/26/3 29/29/3 30/30/3 
f 26/26/3 28/28/3 31/31/3 29/29/3 
f 30/32/3 32/33/3 33/34/3 
f 29/29/3 31/31/3 34/35/3 32/36/3 
f 31/31/3 35/37/3 36/38/3 34/35/3 
f 35/37/3 37/39/5 38/40/5 36/38/3 
f 33/34/3 32/33/3 39/41/3 40/42/3 
f 32/33/3 41/43/6 39/41/3 
f 34/35/3 36/38/3 42/44/3 41/45/6 
f 36/38/3 38/40/5 43/46/5 42/44/3 
f 40/42/3 39/41/3 44/47/3 45/48/3 
f 39/41/3 41/43/6 41/43/7 46/49/3 
f 39/41/3 46/49/3 44/47/3 
f 41/45/6 42/44/3 47/50/3 41/45/7 
f 42/44/3 43/46/5 48/51/3 47/50/3 
f 45/48/3 44/47/3 2/52/3 1/53/3 
f 44/47/3 46/49/3 5/54/3 2/52/3 
f 46/49/3 47/55/3 7/56/3 5/54/3 
f 47/50/3 48/51/3 49/57/3 
s 32
f 50/58/8 51/59/8 52/60/8 53/61/8 
f 51/59/8 54/62/8 55/63/8 52/60/8 
f 53/61/8 52/60/8 56/64/9 57/65/9 
f 52/60/8 55/63/8 58/66/8 56/64/9 
f 57/65/9 56/64/9 59/67/9 60/68/9 
f 56/64/9 58/66/8 61/69/9 59/67/9 
f 60/68/9 59/67/9 62/70/9 63/71/9 
f 59/67/9 61/69/9 64/72/9 62/70/9 
f 63/71/9 62/70/9 65/73/8 66/74/8 
f 62/70/9 64/72/9 67/75/8 65/73/8 
f 66/74/8 65/73/8 68/76/8 69/77/8 
f 65/73/8 67/75/8 70/78/8 68/76/8 
f 71/79/8 72/80/8 73/81/8 74/82/8 
f 72/80/8 69/77/8 75/83/8 73/81/8 
f 69/77/8 68/76/8 76/84/8 75/83/8 
f 70/85/8 77/86/8 76/87/8 
f 74/82/8 73/81/8 78/88/10 79/89/10 
f 73/81/8 75/83/8 80/90/8 78/88/10 
f 76/87/8 81/91/8 80/92/8 
f 76/87/8 77/86/8 82/93/8 81/91/8 
f 79/89/10 78/88/10 83/94/8 84/95/8 
f 80/92/8 85/96/8 83/97/8 
f 80/92/8 81/91/8 86/98/8 85/96/8 
f 81/91/8 82/93/8 87/99/8 86/98/8 
f 8/100/8 10/101/8 88/102/8 83/97/8 
f 83/97/8 85/96/8 6/103/8 8/100/8 
f 85/96/8 86/98/8 3/104/8 6/103/8 
f 86/98/8 87/99/8 4/105/8 3/104/8 
s 64
f 54/106/11 11/107/11 14/108/11 55/109/11 
f 55/109/11 14/108/11 18/110/11 58/111/11 
f 58/111/11 18/110/11 21/112/11 61/113/11 
f 61/113/11 21/112/11 24/114/11 64/115/11 
f 64/115/11 24/114/11 27/116/12 67/117/12 
f 67/117/12 27/116/12 30/118/12 70/119/12 
f 70/119/12 30/118/12 33/120/12 77/121/12 
f 77/121/12 33/120/12 40/122/12 82/123/12 
f 82/123/12 40/122/12 45/124/12 87/125/12 
f 87/125/12 45/124/12 1/126/12 4/127/11 
s 8
f 47/55/3 49/128/3 9/129/3 7/56/3 
f 47/55/3 46/49/3 41/43/7 
f 30/30/3 29/29/3 32/36/3 
f 32/36/3 34/35/3 41/45/6 
s 32
f 88/130/8 84/95/8 83/94/8 
f 83/94/8 78/88/10 80/90/8 
f 80/90/8 75/83/8 76/84/8 
f 76/84/8 68/76/8 70/78/8 
s 4
f 89/1/13 90/4/13 91/3/13 92/2/13 
f 92/2/13 91/3/13 93/6/2 94/5/2 
f 94/5/2 93/6/2 95/8/2 96/7/2 
f 96/7/2 95/8/2 10/10/2 9/9/2 
s 8
f 97/11/3 98/14/4 99/13/3 100/12/3 
f 100/12/3 99/13/3 101/16/3 102/15/3 
f 98/14/4 103/18/4 104/17/4 99/13/3 
f 99/13/3 104/17/4 105/19/4 101/16/3 
f 103/18/4 106/21/4 107/20/4 104/17/4 
f 104/17/4 107/20/4 108/22/4 105/19/4 
f 106/21/4 109/24/4 110/23/4 107/20/4 
f 107/20/4 110/23/4 111/25/4 108/22/4 
f 109/24/4 112/27/3 113/26/3 110/23/4 
f 110/23/4 113/26/3 114/28/3 111/25/4 
f 112/27/3 115/30/3 116/29/3 113/26/3 
f 113/26/3 116/29/3 117/31/14 114/28/3 
f 115/32/3 118/34/3 119/33/3 
f 116/29/3 119/36/3 120/35/14 117/31/14 
f 117/31/14 120/35/14 121/38/14 122/37/14 
f 122/37/14 121/38/14 38/40/5 37/39/5 
f 118/34/3 123/42/3 124/41/3 119/33/3 
f 119/33/3 124/41/3 125/43/15 
f 120/35/14 125/45/15 126/44/14 121/38/14 
f 121/38/14 126/44/14 43/46/5 38/40/5 
f 123/42/3 127/48/3 128/47/3 124/41/3 
f 124/41/3 128/47/3 129/49/3 125/43/16 
f 124/41/3 125/43/16 125/43/15 
f 125/45/15 125/45/16 130/50/3 126/44/14 
f 126/44/14 130/50/3 48/51/3 43/46/5 
f 127/48/3 89/53/3 92/52/3 128/47/3 
f 128/47/3 92/52/3 94/54/3 129/49/3 
f 129/49/3 94/54/3 96/56/3 130/55/3 
f 130/50/3 49/57/3 48/51/3 
s 32
f 131/58/8 132/61/8 133/60/8 134/59/8 
f 134/59/8 133/60/8 135/63/8 136/62/8 
f 132/61/8 137/65/9 138/64/9 133/60/8 
f 133/60/8 138/64/9 139/66/8 135/63/8 
f 137/65/9 140/68/17 141/67/9 138/64/9 
f 138/64/9 141/67/9 142/69/9 139/66/8 
f 140/68/17 143/71/17 144/70/9 141/67/9 
f 141/67/9 144/70/9 145/72/9 142/69/9 
f 143/71/17 146/74/18 147/73/8 144/70/9 
f 144/70/9 147/73/8 148/75/8 145/72/9 
f 146/74/18 149/77/18 150/76/8 147/73/8 
f 147/73/8 150/76/8 151/78/8 148/75/8 
f 71/79/8 74/82/8 152/81/18 153/80/18 
f 153/80/18 152/81/18 154/83/18 149/77/18 
f 149/77/18 154/83/18 155/84/8 150/76/8 
f 151/85/8 155/87/8 156/86/8 
f 74/82/8 79/89/10 157/88/19 152/81/18 
f 152/81/18 157/88/19 158/90/18 154/83/18 
f 155/87/8 158/92/18 159/91/8 
f 155/87/8 159/91/8 160/93/8 156/86/8 
f 79/89/10 84/95/8 161/94/18 157/88/19 
f 158/92/18 161/97/18 162/96/8 
f 158/92/18 162/96/8 163/98/8 159/91/8 
f 159/91/8 163/98/8 164/99/8 160/93/8 
f 95/100/8 161/97/18 88/102/8 10/101/8 
f 161/97/18 95/100/8 93/103/8 162/96/8 
f 162/96/8 93/103/8 91/104/8 163/98/8 
f 163/98/8 91/104/8 90/105/8 164/99/8 
s 64
f 136/106/20 135/109/20 98/108/20 97/107/20 
f 135/109/20 139/111/20 103/110/20 98/108/20 
f 139/111/20 142/113/20 106/112/20 103/110/20 
f 142/113/20 145/115/20 109/114/20 106/112/20 
f 145/115/20 148/117/21 112/116/21 109/114/20 
f 148/117/21 151/119/21 115/118/21 112/116/21 
f 151/119/21 156/121/21 118/120/21 115/118/21 
f 156/121/21 160/123/21 123/122/21 118/120/21 
f 160/123/21 164/125/21 127/124/21 123/122/21 
f 164/125/21 90/127/20 89/126/21 127/124/21 
s 8
f 130/55/3 96/56/3 9/129/3 49/128/3 
f 130/55/3 125/43/16 129/49/3 
f 115/30/3 119/36/3 116/29/3 
f 119/36/3 125/45/15 120/35/14 
s 32
f 88/130/8 161/94/18 84/95/8 
f 161/94/18 158/90/18 157/88/19 
f 158/90/18 155/84/8 154/83/18 
f 155/84/8 151/78/8 150/76/8 
# 130 polygons - 28 triangles

