# 3ds Max Wavefront OBJ Exporter v0.97b - (c)2007 guruware
# File Created: 04.06.2016 13:38:07

mtllib sidedoor2.mtl

#
# object Box067
#

v  640.3995 90.3957 169.4360
v  663.4617 90.3957 169.4360
v  663.4617 93.9486 168.0455
v  636.9567 93.9486 168.0455
v  686.5240 90.3957 169.4360
v  689.9667 93.9486 168.0455
v  663.4617 97.2016 161.9253
v  640.0775 98.3165 164.2024
v  686.8459 98.3165 164.2024
v  663.4617 106.9180 146.1967
v  686.5240 90.3957 148.2487
v  689.9667 93.9486 147.4144
v  686.5240 90.3957 127.0613
v  689.9667 93.9486 126.7832
v  686.5240 90.3957 105.8740
v  689.9667 93.9486 106.1521
v  686.5240 90.3957 84.6867
v  689.9667 93.9486 85.5210
v  686.5240 90.3957 63.4994
v  689.9667 93.9486 64.8898
v  686.8459 96.7024 145.8965
v  686.8459 96.7024 126.2773
v  686.8459 96.7024 106.6581
v  686.8459 96.7024 87.0388
v  686.8459 98.3165 68.7330
v  663.4617 106.9180 134.3051
v  663.4617 106.9180 122.4135
v  663.4617 106.9180 110.5219
v  663.4617 106.9180 98.6303
v  663.4617 106.9180 86.7387
v  663.4617 90.3957 63.4994
v  663.4617 93.9486 64.8898
v  640.3995 90.3957 63.4994
v  636.9567 93.9486 64.8898
v  663.4617 97.2016 71.0101
v  640.0775 98.3165 68.7330
v  640.3995 90.3957 84.6867
v  636.9567 93.9486 85.5210
v  640.3995 90.3957 105.8740
v  636.9567 93.9486 106.1521
v  640.3995 90.3957 127.0613
v  636.9567 93.9486 126.7833
v  640.3995 90.3957 148.2487
v  636.9567 93.9486 147.4144
v  640.0775 96.7024 87.0389
v  640.0775 96.7024 106.6581
v  640.0775 96.7024 126.2773
v  640.0775 96.7024 145.8965
# 48 vertices

vn 0.0000 0.3161 0.9487
vn -0.0192 0.6081 0.7936
vn 0.0432 0.4973 0.8665
vn 0.0000 0.4809 0.8768
vn -0.0175 0.8213 0.5702
vn 0.0942 0.6156 0.7824
vn -0.0275 0.6767 0.7357
vn 0.0000 0.8094 0.5872
vn 0.7182 -0.6959 -0.0000
vn 0.9992 0.0391 -0.0000
vn 0.9563 -0.2915 -0.0210
vn 0.9995 0.0199 0.0261
vn 0.9550 -0.2967 -0.0000
vn 0.5589 0.8286 -0.0310
vn 0.7132 0.6980 -0.0643
vn 0.5375 0.8433 -0.0000
vn 0.5434 0.8385 0.0394
vn 0.6808 0.7313 0.0404
vn 0.3914 0.9201 -0.0127
vn 0.3452 0.9385 -0.0000
vn 0.4003 0.9164 -0.0000
vn 0.4000 0.9162 0.0251
vn 0.0000 0.3161 -0.9487
vn 0.0192 0.6081 -0.7936
vn -0.0432 0.4973 -0.8665
vn 0.0000 0.4809 -0.8768
vn 0.0175 0.8213 -0.5702
vn -0.0942 0.6156 -0.7824
vn 0.0275 0.6767 -0.7357
vn 0.0000 0.8094 -0.5872
vn -0.7182 -0.6959 -0.0000
vn -0.9992 0.0391 -0.0000
vn -0.9563 -0.2915 0.0210
vn -0.9995 0.0199 -0.0261
vn -0.9550 -0.2967 -0.0000
vn -0.5589 0.8286 0.0310
vn -0.7132 0.6980 0.0643
vn -0.5375 0.8433 -0.0000
vn -0.5434 0.8385 -0.0394
vn -0.6808 0.7313 -0.0404
vn -0.3914 0.9201 0.0127
vn -0.3452 0.9385 -0.0000
vn -0.4003 0.9164 -0.0000
vn -0.4000 0.9162 -0.0251
# 44 vertex normals

vt 0.0000 0.2500 0.0000
vt 0.5000 0.2500 0.0000
vt 0.5000 0.5000 0.0000
vt 0.0000 0.5000 0.0000
vt 1.0000 0.2500 0.0000
vt 1.0000 0.5000 0.0000
vt 0.5000 0.7500 0.0000
vt 0.0000 0.7500 0.0000
vt 1.0000 0.7500 0.0000
vt 0.0000 1.0000 0.0000
vt 0.2000 0.2500 0.0000
vt 0.2000 0.5000 0.0000
vt 0.4000 0.2500 0.0000
vt 0.4000 0.5000 0.0000
vt 0.6000 0.2500 0.0000
vt 0.6000 0.5000 0.0000
vt 0.8000 0.2500 0.0000
vt 0.8000 0.5000 0.0000
vt 0.2000 0.7500 0.0000
vt 0.4000 0.7500 0.0000
vt 0.6000 0.7500 0.0000
vt 0.8000 0.7500 0.0000
vt 0.2000 1.0000 0.0000
vt 0.4000 1.0000 0.0000
vt 0.6000 1.0000 0.0000
vt 0.8000 1.0000 0.0000
vt 1.0000 1.0000 0.0000
# 27 texture coords

g Box067
usemtl ________
s 8
f 1/1/1 2/2/1 3/3/2 4/4/3 
f 2/2/1 5/5/1 6/6/4 3/3/2 
f 4/4/3 3/3/2 7/7/5 8/8/6 
f 3/3/2 6/6/4 9/9/7 7/7/5 
f 8/8/6 7/7/5 10/10/8 
f 7/7/5 9/9/7 10/10/8 
s 16
f 5/1/9 11/11/9 12/12/10 6/4/11 
f 11/11/9 13/13/9 14/14/10 12/12/10 
f 13/13/9 15/15/9 16/16/10 14/14/10 
f 15/15/9 17/17/9 18/18/12 16/16/10 
f 17/17/9 19/5/9 20/6/13 18/18/12 
f 6/4/11 12/12/10 21/19/14 9/8/15 
f 12/12/10 14/14/10 22/20/16 21/19/14 
f 14/14/10 16/16/10 23/21/16 22/20/16 
f 16/16/10 18/18/12 24/22/17 23/21/16 
f 18/18/12 20/6/13 25/9/18 24/22/17 
f 9/8/15 21/19/14 26/23/19 10/10/20 
f 21/19/14 22/20/16 27/24/21 26/23/19 
f 22/20/16 23/21/16 28/25/21 27/24/21 
f 23/21/16 24/22/17 29/26/21 28/25/21 
f 24/22/17 25/9/18 30/27/22 29/26/21 
s 32
f 19/1/23 31/2/23 32/3/24 20/4/25 
f 31/2/23 33/5/23 34/6/26 32/3/24 
f 20/4/25 32/3/24 35/7/27 25/8/28 
f 32/3/24 34/6/26 36/9/29 35/7/27 
f 25/8/28 35/7/27 30/10/30 
f 35/7/27 36/9/29 30/10/30 
s 64
f 33/1/31 37/11/31 38/12/32 34/4/33 
f 37/11/31 39/13/31 40/14/32 38/12/32 
f 39/13/31 41/15/31 42/16/32 40/14/32 
f 41/15/31 43/17/31 44/18/34 42/16/32 
f 43/17/31 1/5/31 4/6/35 44/18/34 
f 34/4/33 38/12/32 45/19/36 36/8/37 
f 38/12/32 40/14/32 46/20/38 45/19/36 
f 40/14/32 42/16/32 47/21/38 46/20/38 
f 42/16/32 44/18/34 48/22/39 47/21/38 
f 44/18/34 4/6/35 8/9/40 48/22/39 
f 36/8/37 45/19/36 29/23/41 30/10/42 
f 45/19/36 46/20/38 28/24/43 29/23/41 
f 46/20/38 47/21/38 27/25/43 28/24/43 
f 47/21/38 48/22/39 26/26/43 27/25/43 
f 48/22/39 8/9/40 10/27/44 26/26/43 
# 38 polygons - 4 triangles

