# 3ds Max Wavefront OBJ Exporter v0.97b - (c)2007 guruware
# File Created: 04.06.2016 13:36:31

mtllib wallhead3.mtl

#
# object Box057
#

v  -685.2610 67.1412 1124.9412
v  -685.2610 67.1412 1109.5472
v  -77.2191 67.1412 1109.5472
v  -77.2191 67.1412 1124.9412
v  -685.2610 67.1412 1094.1533
v  -77.2191 67.1412 1094.1533
v  -77.2191 72.1819 1138.2947
v  -685.2610 72.1819 1138.2947
v  -77.2191 74.5854 1136.9363
v  -685.2610 74.5854 1136.9363
v  -77.2191 89.8684 1109.5472
v  -685.2610 89.8684 1109.5472
v  -77.2191 72.1819 1109.5472
v  -77.2191 72.1819 1080.7998
v  -77.2191 74.5854 1109.5472
v  -77.2191 74.5854 1082.1582
v  -685.2610 72.1819 1080.7998
v  -685.2610 74.5854 1082.1582
v  -685.2610 72.1819 1109.5472
v  -685.2610 74.5854 1109.5472
# 20 vertices

vn 0.0000 -0.9930 0.1181
vn 0.0000 -1.0000 -0.0000
vn 0.0000 -0.9930 -0.1181
vn 0.0000 -0.9721 0.2345
vn 0.0000 0.6625 0.7491
vn 0.0000 0.8284 0.5601
vn 0.0000 1.0000 -0.0000
vn 1.0000 0.0000 -0.0000
vn 0.0000 -0.9721 -0.2345
vn 0.0000 0.6625 -0.7491
vn 0.0000 0.8284 -0.5601
vn -1.0000 0.0000 -0.0000
# 12 vertex normals

vt 1.0000 0.0000 0.0000
vt 1.0000 0.5000 0.0000
vt 0.0000 0.5000 0.0000
vt 0.0000 0.0000 0.0000
vt 1.0000 1.0000 0.0000
vt 0.0000 1.0000 0.0000
vt 1.0000 0.3333 0.0000
vt 0.0000 0.3333 0.0000
vt 1.0000 0.6667 0.0000
vt 0.0000 0.6667 0.0000
vt 0.5000 0.0000 0.0000
vt 0.5000 0.3333 0.0000
vt 0.5000 0.6667 0.0000
# 13 texture coords

g Box057
usemtl __________
s 1
f 1/1/1 2/2/2 3/3/2 4/4/1 
f 2/2/2 5/5/3 6/6/3 3/3/2 
f 1/4/1 4/1/1 7/7/4 8/8/4 
s 2
f 8/8/5 7/7/5 9/9/6 10/10/6 
f 10/10/6 9/9/6 11/5/7 12/6/7 
s 4
f 4/4/8 3/11/8 13/12/8 7/8/8 
f 3/11/8 6/1/8 14/7/8 13/12/8 
f 7/8/8 13/12/8 15/13/8 9/10/8 
f 13/12/8 14/7/8 16/9/8 15/13/8 
f 9/10/8 15/13/8 11/6/8 
f 15/13/8 16/9/8 11/6/8 
s 1
f 6/4/3 5/1/3 17/7/9 14/8/9 
s 2
f 14/8/10 17/7/10 18/9/11 16/10/11 
f 16/10/11 18/9/11 12/5/7 11/6/7 
s 4
f 5/4/12 2/11/12 19/12/12 17/8/12 
f 2/11/12 1/1/12 8/7/12 19/12/12 
f 17/8/12 19/12/12 20/13/12 18/10/12 
f 19/12/12 8/7/12 10/9/12 20/13/12 
f 18/10/12 20/13/12 12/6/12 
f 20/13/12 10/9/12 12/6/12 
# 16 polygons - 4 triangles

